{
	"asset":{
		"generator":"Khronos glTF Blender I/O v3.5.30",
		"version":"2.0"
	},
	"scene":0,
	"scenes":[
		{
			"name":"Scene",
			"nodes":[
				0
			]
		}
	],
	"nodes":[
		{
			"mesh":0,
			"name":"wire_broken_01.001",
			"rotation":[
				0.5,
				0.4999999403953552,
				-0.5,
				0.5000000596046448
			],
			"scale":[
				1.5,
				1.5,
				1.5
			],
			"translation":[
				-3.606029987335205,
				2.2591800689697266,
				-1.3351800441741943
			]
		}
	],
	"materials":[
		{
			"doubleSided":true,
			"name":"wireBroken_shader.001",
			"pbrMetallicRoughness":{
				"baseColorFactor":[
					1,
					0.12332600355148315,
					0.1411157250404358,
					1
				],
				"metallicFactor":0,
				"roughnessFactor":0.5527864098548889
			}
		}
	],
	"meshes":[
		{
			"name":"Mesh.056",
			"primitives":[
				{
					"attributes":{
						"POSITION":0,
						"TEXCOORD_0":1,
						"NORMAL":2
					},
					"indices":3,
					"material":0
				}
			]
		}
	],
	"accessors":[
		{
			"bufferView":0,
			"componentType":5126,
			"count":194,
			"max":[
				0.05581068992614746,
				0.21832934021949768,
				0.7621972560882568
			],
			"min":[
				-0.05742347240447998,
				-0.17175394296646118,
				-0.8254581689834595
			],
			"type":"VEC3"
		},
		{
			"bufferView":1,
			"componentType":5126,
			"count":194,
			"type":"VEC2"
		},
		{
			"bufferView":2,
			"componentType":5126,
			"count":194,
			"type":"VEC3"
		},
		{
			"bufferView":3,
			"componentType":5123,
			"count":480,
			"type":"SCALAR"
		}
	],
	"bufferViews":[
		{
			"buffer":0,
			"byteLength":2328,
			"byteOffset":0,
			"target":34962
		},
		{
			"buffer":0,
			"byteLength":1552,
			"byteOffset":2328,
			"target":34962
		},
		{
			"buffer":0,
			"byteLength":2328,
			"byteOffset":3880,
			"target":34962
		},
		{
			"buffer":0,
			"byteLength":960,
			"byteOffset":6208,
			"target":34963
		}
	],
	"buffers":[
		{
			"byteLength":7168,
			"uri":"data:application/octet-stream;base64,"
		}
	]
}
