{
	"asset":{
		"generator":"Khronos glTF Blender I/O v3.5.30",
		"version":"2.0"
	},
	"scene":0,
	"scenes":[
		{
			"name":"Scene",
			"nodes":[
				0
			]
		}
	],
	"nodes":[
		{
			"mesh":0,
			"name":"heatgun.001",
			"rotation":[
				0.5,
				0.4999999403953552,
				-0.5,
				0.5000000596046448
			],
			"scale":[
				0.013984067365527153,
				0.013984067365527153,
				0.013984067365527153
			],
			"translation":[
				-0.03317077457904816,
				0.0001780938619049266,
				-0.00045954715460538864
			]
		}
	],
	"materials":[
		{
			"doubleSided":true,
			"name":"Material.005",
			"pbrMetallicRoughness":{
				"baseColorTexture":{
					"index":0
				},
				"metallicFactor":0,
				"roughnessFactor":0.4000000059604645
			}
		}
	],
	"meshes":[
		{
			"name":"Mesh.109",
			"primitives":[
				{
					"attributes":{
						"POSITION":0,
						"TEXCOORD_0":1,
						"NORMAL":2
					},
					"indices":3,
					"material":0
				}
			]
		}
	],
	"textures":[
		{
			"sampler":0,
			"source":0
		}
	],
	"images":[
		{
			"bufferView":4,
			"mimeType":"image/png",
			"name":"heatgun Base Color"
		}
	],
	"accessors":[
		{
			"bufferView":0,
			"componentType":5126,
			"count":2378,
			"max":[
				2.1656203269958496,
				-0.17453336715698242,
				-1.0081980228424072
			],
			"min":[
				1.8819224834442139,
				-0.2761075496673584,
				-1.4313793182373047
			],
			"type":"VEC3"
		},
		{
			"bufferView":1,
			"componentType":5126,
			"count":2378,
			"type":"VEC2"
		},
		{
			"bufferView":2,
			"componentType":5126,
			"count":2378,
			"type":"VEC3"
		},
		{
			"bufferView":3,
			"componentType":5123,
			"count":10908,
			"type":"SCALAR"
		}
	],
	"bufferViews":[
		{
			"buffer":0,
			"byteLength":28536,
			"byteOffset":0,
			"target":34962
		},
		{
			"buffer":0,
			"byteLength":19024,
			"byteOffset":28536,
			"target":34962
		},
		{
			"buffer":0,
			"byteLength":28536,
			"byteOffset":47560,
			"target":34962
		},
		{
			"buffer":0,
			"byteLength":21816,
			"byteOffset":76096,
			"target":34963
		},
		{
			"buffer":0,
			"byteLength":157045,
			"byteOffset":97912
		}
	],
	"samplers":[
		{
			"magFilter":9729,
			"minFilter":9987
		}
	],
	"buffers":[
		{
			"byteLength":254960,
			"uri":"data:application/octet-stream;base64,"
		}
	]
}
