{
    "asset" : {
        "generator" : "Khronos glTF Blender I/O v3.4.50",
        "version" : "2.0"
    },
    "extensionsUsed" : [
        "KHR_materials_specular",
        "KHR_materials_ior"
    ],
    "scene" : 0,
    "scenes" : [
        {
            "name" : "Scene",
            "nodes" : [
                0
            ]
        }
    ],
    "nodes" : [
        {
            "mesh" : 0,
            "name" : "mechanic_panel_5",
            "rotation" : [
                0.70710688829422,
                0,
                0,
                0.7071066498756409
            ]
        }
    ],
    "materials" : [
        {
            "alphaMode" : "BLEND",
            "doubleSided" : true,
            "extensions" : {
                "KHR_materials_specular" : {
                    "specularColorFactor" : [
                        1,
                        1,
                        1
                    ]
                },
                "KHR_materials_ior" : {
                    "ior" : 1
                }
            },
            "name" : "initialShadingGroup",
            "pbrMetallicRoughness" : {
                "baseColorFactor" : [
                    0.6499999761581421,
                    0,
                    1,
                    1
                ],
                "metallicFactor" : 0
            }
        }
    ],
    "meshes" : [
        {
            "name" : "mechanic_panel_5",
            "primitives" : [
                {
                    "attributes" : {
                        "POSITION" : 0,
                        "TEXCOORD_0" : 1,
                        "NORMAL" : 2
                    },
                    "indices" : 3,
                    "material" : 0
                }
            ]
        }
    ],
    "accessors" : [
        {
            "bufferView" : 0,
            "componentType" : 5126,
            "count" : 10685,
            "max" : [
                1.010282039642334,
                0.20415399968624115,
                0.01527199987322092
            ],
            "min" : [
                -1.010282039642334,
                -0.12196700274944305,
                -2.9773049354553223
            ],
            "type" : "VEC3"
        },
        {
            "bufferView" : 1,
            "componentType" : 5126,
            "count" : 10685,
            "type" : "VEC2"
        },
        {
            "bufferView" : 2,
            "componentType" : 5126,
            "count" : 10685,
            "type" : "VEC3"
        },
        {
            "bufferView" : 3,
            "componentType" : 5123,
            "count" : 54048,
            "type" : "SCALAR"
        }
    ],
    "bufferViews" : [
        {
            "buffer" : 0,
            "byteLength" : 128220,
            "byteOffset" : 0,
            "target" : 34962
        },
        {
            "buffer" : 0,
            "byteLength" : 85480,
            "byteOffset" : 128220,
            "target" : 34962
        },
        {
            "buffer" : 0,
            "byteLength" : 128220,
            "byteOffset" : 213700,
            "target" : 34962
        },
        {
            "buffer" : 0,
            "byteLength" : 108096,
            "byteOffset" : 341920,
            "target" : 34963
        }
    ],
    "buffers" : [
        {
            "byteLength" : 450016,
            "uri" : "data:application/octet-stream;base64,"
        }
    ]
}
