{
	"asset":{
		"generator":"Khronos glTF Blender I/O v3.5.30",
		"version":"2.0"
	},
	"scene":0,
	"scenes":[
		{
			"name":"Scene",
			"nodes":[
				0
			]
		}
	],
	"nodes":[
		{
			"mesh":0,
			"name":"wire_fixed_2",
			"rotation":[
				0.5,
				0.4999999403953552,
				-0.5,
				0.5000000596046448
			],
			"scale":[
				0.013984067365527153,
				0.013984067365527153,
				0.013984067365527153
			],
			"translation":[
				-0.03317077457904816,
				0.00017809390556067228,
				5.6202170526375994e-05
			]
		}
	],
	"materials":[
		{
			"doubleSided":true,
			"name":"fixedWire_shader1.001",
			"pbrMetallicRoughness":{
				"baseColorFactor":[
					0.13980047404766083,
					1,
					0.11530572175979614,
					1
				],
				"metallicFactor":0,
				"roughnessFactor":0.5527864098548889
			}
		},
		{
			"doubleSided":true,
			"name":"fixedWire_black.001",
			"pbrMetallicRoughness":{
				"baseColorFactor":[
					0.03333333507180214,
					0.03333333507180214,
					0.03333333507180214,
					1
				],
				"metallicFactor":0,
				"roughnessFactor":0.5527864098548889
			}
		}
	],
	"meshes":[
		{
			"name":"Mesh.104",
			"primitives":[
				{
					"attributes":{
						"POSITION":0,
						"TEXCOORD_0":1,
						"NORMAL":2
					},
					"indices":3,
					"material":0
				},
				{
					"attributes":{
						"POSITION":4,
						"TEXCOORD_0":5,
						"NORMAL":6
					},
					"indices":7,
					"material":1
				}
			]
		}
	],
	"accessors":[
		{
			"bufferView":0,
			"componentType":5126,
			"count":340,
			"max":[
				0.7535678148269653,
				-0.005408566445112228,
				-0.8880686163902283
			],
			"min":[
				0.6462852358818054,
				-0.369086891412735,
				-2.4519472122192383
			],
			"type":"VEC3"
		},
		{
			"bufferView":1,
			"componentType":5126,
			"count":340,
			"type":"VEC2"
		},
		{
			"bufferView":2,
			"componentType":5126,
			"count":340,
			"type":"VEC3"
		},
		{
			"bufferView":3,
			"componentType":5123,
			"count":1440,
			"type":"SCALAR"
		},
		{
			"bufferView":4,
			"componentType":5126,
			"count":200,
			"max":[
				0.748257040977478,
				-0.12835006415843964,
				-1.498225450515747
			],
			"min":[
				0.6709830164909363,
				-0.29372602701187134,
				-1.9148470163345337
			],
			"type":"VEC3"
		},
		{
			"bufferView":5,
			"componentType":5126,
			"count":200,
			"type":"VEC2"
		},
		{
			"bufferView":6,
			"componentType":5126,
			"count":200,
			"type":"VEC3"
		},
		{
			"bufferView":7,
			"componentType":5123,
			"count":672,
			"type":"SCALAR"
		}
	],
	"bufferViews":[
		{
			"buffer":0,
			"byteLength":4080,
			"byteOffset":0,
			"target":34962
		},
		{
			"buffer":0,
			"byteLength":2720,
			"byteOffset":4080,
			"target":34962
		},
		{
			"buffer":0,
			"byteLength":4080,
			"byteOffset":6800,
			"target":34962
		},
		{
			"buffer":0,
			"byteLength":2880,
			"byteOffset":10880,
			"target":34963
		},
		{
			"buffer":0,
			"byteLength":2400,
			"byteOffset":13760,
			"target":34962
		},
		{
			"buffer":0,
			"byteLength":1600,
			"byteOffset":16160,
			"target":34962
		},
		{
			"buffer":0,
			"byteLength":2400,
			"byteOffset":17760,
			"target":34962
		},
		{
			"buffer":0,
			"byteLength":1344,
			"byteOffset":20160,
			"target":34963
		}
	],
	"buffers":[
		{
			"byteLength":21504,
			"uri":"data:application/octet-stream;base64,"
		}
	]
}
