{
	"asset":{
		"generator":"Khronos glTF Blender I/O v3.5.30",
		"version":"2.0"
	},
	"extensionsUsed":[
		"KHR_materials_transmission"
	],
	"scene":0,
	"scenes":[
		{
			"name":"Scene",
			"nodes":[
				5
			]
		}
	],
	"nodes":[
		{
			"mesh":0,
			"name":"glass",
			"rotation":[
				0.7071068286895752,
				0,
				0,
				0.7071068286895752
			],
			"scale":[
				4.833000183105469,
				4.833000183105469,
				8.43808650970459
			],
			"translation":[
				0,
				0.3171819746494293,
				-0.9304037094116211
			]
		},
		{
			"mesh":1,
			"name":"increase_temp_screen",
			"scale":[
				0.6249932646751404,
				0.7722489833831787,
				0.3746180236339569
			],
			"translation":[
				-0.010246633552014828,
				-15.766969680786133,
				-3.6837399005889893
			]
		},
		{
			"mesh":2,
			"name":"pPlane4",
			"scale":[
				9.973014831542969,
				24.314720153808594,
				9.973014831542969
			],
			"translation":[
				0,
				-3.679267644882202,
				-0.04552784562110901
			]
		},
		{
			"mesh":3,
			"name":"pPlane5",
			"rotation":[
				0.7071068286895752,
				0,
				0,
				0.7071068286895752
			],
			"scale":[
				3.110464096069336,
				3.3902320861816406,
				1.9738869667053223
			],
			"translation":[
				0,
				-15.374687194824219,
				-1.643015742301941
			]
		},
		{
			"mesh":4,
			"name":"rocket",
			"rotation":[
				0.7071068286895752,
				0,
				0,
				0.7071068286895752
			],
			"scale":[
				4.833000183105469,
				4.833000183105469,
				8.43808650970459
			],
			"translation":[
				0,
				-0.06303025037050247,
				-0.930403470993042
			]
		},
		{
			"children":[
				0,
				1,
				2,
				3,
				4
			],
			"name":"rocket_grp",
			"rotation":[
				0.7071068286895752,
				0,
				0,
				0.7071068286895752
			],
			"scale":[
				0.009999999776482582,
				0.009999999776482582,
				0.009999999776482582
			]
		}
	],
	"materials":[
		{
			"doubleSided":true,
			"extensions":{
				"KHR_materials_transmission":{
					"transmissionFactor":1
				}
			},
			"name":"aiStandardSurface2.001",
			"pbrMetallicRoughness":{
				"baseColorFactor":[
					0.800000011920929,
					0.800000011920929,
					0.800000011920929,
					1
				],
				"metallicFactor":0,
				"roughnessFactor":0
			}
		},
		{
			"doubleSided":true,
			"name":"aiStandardSurface1.001",
			"pbrMetallicRoughness":{
				"baseColorFactor":[
					0.2880406677722931,
					0.26772984862327576,
					0.2828812003135681,
					1
				],
				"metallicFactor":0,
				"roughnessFactor":0.5527864098548889
			}
		},
		{
			"doubleSided":true,
			"name":"aiStandardSurface3.001",
			"pbrMetallicRoughness":{
				"baseColorFactor":[
					0.12363584339618683,
					0.12363584339618683,
					0.12363584339618683,
					1
				],
				"metallicFactor":0,
				"roughnessFactor":0.5527864098548889
			}
		}
	],
	"meshes":[
		{
			"name":"Mesh.006",
			"primitives":[
				{
					"attributes":{
						"POSITION":0,
						"TEXCOORD_0":1,
						"NORMAL":2
					},
					"indices":3,
					"material":0
				}
			]
		},
		{
			"name":"Mesh.007",
			"primitives":[
				{
					"attributes":{
						"POSITION":4,
						"TEXCOORD_0":5,
						"NORMAL":6
					},
					"indices":7,
					"material":1
				}
			]
		},
		{
			"name":"Mesh.009",
			"primitives":[
				{
					"attributes":{
						"POSITION":8,
						"TEXCOORD_0":9,
						"NORMAL":10
					},
					"indices":11,
					"material":2
				}
			]
		},
		{
			"name":"Mesh.008",
			"primitives":[
				{
					"attributes":{
						"POSITION":12,
						"TEXCOORD_0":13,
						"NORMAL":14
					},
					"indices":15,
					"material":1
				}
			]
		},
		{
			"name":"Mesh.005",
			"primitives":[
				{
					"attributes":{
						"POSITION":16,
						"TEXCOORD_0":17,
						"NORMAL":18
					},
					"indices":19,
					"material":1
				}
			]
		}
	],
	"accessors":[
		{
			"bufferView":0,
			"componentType":5126,
			"count":53,
			"max":[
				0.9326516389846802,
				0.1192881315946579,
				-0.5358501672744751
			],
			"min":[
				-0.9326514005661011,
				-0.9220596551895142,
				-0.7551349401473999
			],
			"type":"VEC3"
		},
		{
			"bufferView":1,
			"componentType":5126,
			"count":53,
			"type":"VEC2"
		},
		{
			"bufferView":2,
			"componentType":5126,
			"count":53,
			"type":"VEC3"
		},
		{
			"bufferView":3,
			"componentType":5123,
			"count":156,
			"type":"SCALAR"
		},
		{
			"bufferView":4,
			"componentType":5126,
			"count":470,
			"max":[
				0.5,
				0.5000000596046448,
				0.5
			],
			"min":[
				-0.5,
				0.25014349818229675,
				-0.5
			],
			"type":"VEC3"
		},
		{
			"bufferView":5,
			"componentType":5126,
			"count":470,
			"type":"VEC2"
		},
		{
			"bufferView":6,
			"componentType":5126,
			"count":470,
			"type":"VEC3"
		},
		{
			"bufferView":7,
			"componentType":5123,
			"count":2160,
			"type":"SCALAR"
		},
		{
			"bufferView":8,
			"componentType":5126,
			"count":25,
			"max":[
				0.5,
				0.5,
				0
			],
			"min":[
				-0.5,
				-0.5,
				0
			],
			"type":"VEC3"
		},
		{
			"bufferView":9,
			"componentType":5126,
			"count":25,
			"type":"VEC2"
		},
		{
			"bufferView":10,
			"componentType":5126,
			"count":25,
			"type":"VEC3"
		},
		{
			"bufferView":11,
			"componentType":5123,
			"count":96,
			"type":"SCALAR"
		},
		{
			"bufferView":12,
			"componentType":5126,
			"count":66,
			"max":[
				0.5,
				0.5,
				0.12212589383125305
			],
			"min":[
				-0.5,
				-0.5,
				0
			],
			"type":"VEC3"
		},
		{
			"bufferView":13,
			"componentType":5126,
			"count":66,
			"type":"VEC2"
		},
		{
			"bufferView":14,
			"componentType":5126,
			"count":66,
			"type":"VEC3"
		},
		{
			"bufferView":15,
			"componentType":5123,
			"count":384,
			"type":"SCALAR"
		},
		{
			"bufferView":16,
			"componentType":5126,
			"count":292,
			"max":[
				0.9911419749259949,
				0.9911419749259949,
				1.835912823677063
			],
			"min":[
				-0.9911419749259949,
				-1.1061515808105469,
				-0.7786563038825989
			],
			"type":"VEC3"
		},
		{
			"bufferView":17,
			"componentType":5126,
			"count":292,
			"type":"VEC2"
		},
		{
			"bufferView":18,
			"componentType":5126,
			"count":292,
			"type":"VEC3"
		},
		{
			"bufferView":19,
			"componentType":5123,
			"count":1464,
			"type":"SCALAR"
		}
	],
	"bufferViews":[
		{
			"buffer":0,
			"byteLength":636,
			"byteOffset":0,
			"target":34962
		},
		{
			"buffer":0,
			"byteLength":424,
			"byteOffset":636,
			"target":34962
		},
		{
			"buffer":0,
			"byteLength":636,
			"byteOffset":1060,
			"target":34962
		},
		{
			"buffer":0,
			"byteLength":312,
			"byteOffset":1696,
			"target":34963
		},
		{
			"buffer":0,
			"byteLength":5640,
			"byteOffset":2008,
			"target":34962
		},
		{
			"buffer":0,
			"byteLength":3760,
			"byteOffset":7648,
			"target":34962
		},
		{
			"buffer":0,
			"byteLength":5640,
			"byteOffset":11408,
			"target":34962
		},
		{
			"buffer":0,
			"byteLength":4320,
			"byteOffset":17048,
			"target":34963
		},
		{
			"buffer":0,
			"byteLength":300,
			"byteOffset":21368,
			"target":34962
		},
		{
			"buffer":0,
			"byteLength":200,
			"byteOffset":21668,
			"target":34962
		},
		{
			"buffer":0,
			"byteLength":300,
			"byteOffset":21868,
			"target":34962
		},
		{
			"buffer":0,
			"byteLength":192,
			"byteOffset":22168,
			"target":34963
		},
		{
			"buffer":0,
			"byteLength":792,
			"byteOffset":22360,
			"target":34962
		},
		{
			"buffer":0,
			"byteLength":528,
			"byteOffset":23152,
			"target":34962
		},
		{
			"buffer":0,
			"byteLength":792,
			"byteOffset":23680,
			"target":34962
		},
		{
			"buffer":0,
			"byteLength":768,
			"byteOffset":24472,
			"target":34963
		},
		{
			"buffer":0,
			"byteLength":3504,
			"byteOffset":25240,
			"target":34962
		},
		{
			"buffer":0,
			"byteLength":2336,
			"byteOffset":28744,
			"target":34962
		},
		{
			"buffer":0,
			"byteLength":3504,
			"byteOffset":31080,
			"target":34962
		},
		{
			"buffer":0,
			"byteLength":2928,
			"byteOffset":34584,
			"target":34963
		}
	],
	"buffers":[
		{
			"byteLength":37512,
			"uri":"rocket_withGlass.bin"
		}
	]
}
