{
    "asset" : {
        "generator" : "Khronos glTF Blender I/O v1.6.16",
        "version" : "2.0"
    },
    "scene" : 0,
    "scenes" : [
        {
            "name" : "Scene",
            "nodes" : [
                5
            ]
        }
    ],
    "nodes" : [
        {
            "mesh" : 0,
            "name" : "lenovo_Base"
        },
        {
            "mesh" : 1,
            "name" : "lenovo_Keys",
            "rotation" : [
                -0.2539064884185791,
                0.07947391271591187,
                0.2879475951194763,
                0.9199464917182922
            ],
            "scale" : [
                1.4991979598999023,
                1.4991979598999023,
                1.4991979598999023
            ],
            "translation" : [
                132.27642822265625,
                272.2579040527344,
                45.1318359375
            ]
        },
        {
            "children" : [
                0,
                1
            ],
            "name" : "lenovo",
            "rotation" : [
                0.2539064884185791,
                -0.07947392016649246,
                -0.28794756531715393,
                0.9199464917182922
            ],
            "scale" : [
                0.6670233607292175,
                0.6670233607292175,
                0.6670233607292175
            ],
            "translation" : [
                -152.56439208984375,
                -65.08161926269531,
                -118.99137878417969
            ]
        },
        {
            "mesh" : 2,
            "name" : "scientist_TableTop.001"
        },
        {
            "mesh" : 3,
            "name" : "scientistTableTop_Handles"
        },
        {
            "children" : [
                2,
                3,
                4
            ],
            "name" : "scientist_TableTop",
            "rotation" : [
                0.7071068286895752,
                0,
                0,
                0.7071067094802856
            ],
            "scale" : [
                0.009999999776482582,
                0.009999999776482582,
                0.009999999776482582
            ]
        }
    ],
    "materials" : [
        {
            "doubleSided" : true,
            "name" : "lightOrange_Scientist",
            "pbrMetallicRoughness" : {
                "baseColorFactor" : [
                    0.6290004253387451,
                    0.19386857748031616,
                    0.09246306866407394,
                    1
                ],
                "metallicFactor" : 0,
                "roughnessFactor" : 0.5527864098548889
            }
        },
        {
            "doubleSided" : true,
            "name" : "darkOrange_Scientist",
            "pbrMetallicRoughness" : {
                "baseColorFactor" : [
                    1,
                    0.13183200359344482,
                    0,
                    1
                ],
                "metallicFactor" : 0,
                "roughnessFactor" : 0.5527864098548889
            }
        }
    ],
    "meshes" : [
        {
            "name" : "Mesh.002",
            "primitives" : [
                {
                    "attributes" : {
                        "POSITION" : 0,
                        "NORMAL" : 1,
                        "TEXCOORD_0" : 2
                    },
                    "indices" : 3,
                    "material" : 0
                },
                {
                    "attributes" : {
                        "POSITION" : 4,
                        "NORMAL" : 5,
                        "TEXCOORD_0" : 6
                    },
                    "indices" : 7,
                    "material" : 1
                }
            ]
        },
        {
            "name" : "Mesh.003",
            "primitives" : [
                {
                    "attributes" : {
                        "POSITION" : 8,
                        "NORMAL" : 9,
                        "TEXCOORD_0" : 10
                    },
                    "indices" : 11,
                    "material" : 1
                }
            ]
        },
        {
            "name" : "Mesh",
            "primitives" : [
                {
                    "attributes" : {
                        "POSITION" : 12,
                        "NORMAL" : 13,
                        "TEXCOORD_0" : 14
                    },
                    "indices" : 15,
                    "material" : 1
                }
            ]
        },
        {
            "name" : "Mesh.001",
            "primitives" : [
                {
                    "attributes" : {
                        "POSITION" : 16,
                        "NORMAL" : 17,
                        "TEXCOORD_0" : 18
                    },
                    "indices" : 19,
                    "material" : 0
                }
            ]
        }
    ],
    "accessors" : [
        {
            "bufferView" : 0,
            "componentType" : 5126,
            "count" : 315,
            "max" : [
                62.0198974609375,
                50,
                -108.50528717041016
            ],
            "min" : [
                -62.0198974609375,
                -50,
                -208.5052947998047
            ],
            "type" : "VEC3"
        },
        {
            "bufferView" : 1,
            "componentType" : 5126,
            "count" : 315,
            "type" : "VEC3"
        },
        {
            "bufferView" : 2,
            "componentType" : 5126,
            "count" : 315,
            "type" : "VEC2"
        },
        {
            "bufferView" : 3,
            "componentType" : 5123,
            "count" : 786,
            "type" : "SCALAR"
        },
        {
            "bufferView" : 4,
            "componentType" : 5126,
            "count" : 4,
            "max" : [
                54.631629943847656,
                -42.84838104248047,
                -120.5689468383789
            ],
            "min" : [
                -54.631629943847656,
                -42.84838104248047,
                -203.9595947265625
            ],
            "type" : "VEC3"
        },
        {
            "bufferView" : 5,
            "componentType" : 5126,
            "count" : 4,
            "type" : "VEC3"
        },
        {
            "bufferView" : 6,
            "componentType" : 5126,
            "count" : 4,
            "type" : "VEC2"
        },
        {
            "bufferView" : 7,
            "componentType" : 5123,
            "count" : 6,
            "type" : "SCALAR"
        },
        {
            "bufferView" : 8,
            "componentType" : 5126,
            "count" : 2324,
            "max" : [
                -93.75584411621094,
                -3.4408531188964844,
                -180.72052001953125
            ],
            "min" : [
                -167.68759155273438,
                -63.77537536621094,
                -194.3349151611328
            ],
            "type" : "VEC3"
        },
        {
            "bufferView" : 9,
            "componentType" : 5126,
            "count" : 2324,
            "type" : "VEC3"
        },
        {
            "bufferView" : 10,
            "componentType" : 5126,
            "count" : 2324,
            "type" : "VEC2"
        },
        {
            "bufferView" : 11,
            "componentType" : 5123,
            "count" : 5400,
            "type" : "SCALAR"
        },
        {
            "bufferView" : 12,
            "componentType" : 5126,
            "count" : 753,
            "max" : [
                133.33364868164062,
                60.12866973876953,
                3.814697265625e-06
            ],
            "min" : [
                -237.60211181640625,
                -110.5914306640625,
                -271.6297302246094
            ],
            "type" : "VEC3"
        },
        {
            "bufferView" : 13,
            "componentType" : 5126,
            "count" : 753,
            "type" : "VEC3"
        },
        {
            "bufferView" : 14,
            "componentType" : 5126,
            "count" : 753,
            "type" : "VEC2"
        },
        {
            "bufferView" : 15,
            "componentType" : 5123,
            "count" : 1488,
            "type" : "SCALAR"
        },
        {
            "bufferView" : 16,
            "componentType" : 5126,
            "count" : 384,
            "max" : [
                -43.32160949707031,
                43.16604232788086,
                -39.04331970214844
            ],
            "min" : [
                -117.90859985351562,
                1.771463394165039,
                -73.41119384765625
            ],
            "type" : "VEC3"
        },
        {
            "bufferView" : 17,
            "componentType" : 5126,
            "count" : 384,
            "type" : "VEC3"
        },
        {
            "bufferView" : 18,
            "componentType" : 5126,
            "count" : 384,
            "type" : "VEC2"
        },
        {
            "bufferView" : 19,
            "componentType" : 5123,
            "count" : 720,
            "type" : "SCALAR"
        }
    ],
    "bufferViews" : [
        {
            "buffer" : 0,
            "byteLength" : 3780,
            "byteOffset" : 0
        },
        {
            "buffer" : 0,
            "byteLength" : 3780,
            "byteOffset" : 3780
        },
        {
            "buffer" : 0,
            "byteLength" : 2520,
            "byteOffset" : 7560
        },
        {
            "buffer" : 0,
            "byteLength" : 1572,
            "byteOffset" : 10080
        },
        {
            "buffer" : 0,
            "byteLength" : 48,
            "byteOffset" : 11652
        },
        {
            "buffer" : 0,
            "byteLength" : 48,
            "byteOffset" : 11700
        },
        {
            "buffer" : 0,
            "byteLength" : 32,
            "byteOffset" : 11748
        },
        {
            "buffer" : 0,
            "byteLength" : 12,
            "byteOffset" : 11780
        },
        {
            "buffer" : 0,
            "byteLength" : 27888,
            "byteOffset" : 11792
        },
        {
            "buffer" : 0,
            "byteLength" : 27888,
            "byteOffset" : 39680
        },
        {
            "buffer" : 0,
            "byteLength" : 18592,
            "byteOffset" : 67568
        },
        {
            "buffer" : 0,
            "byteLength" : 10800,
            "byteOffset" : 86160
        },
        {
            "buffer" : 0,
            "byteLength" : 9036,
            "byteOffset" : 96960
        },
        {
            "buffer" : 0,
            "byteLength" : 9036,
            "byteOffset" : 105996
        },
        {
            "buffer" : 0,
            "byteLength" : 6024,
            "byteOffset" : 115032
        },
        {
            "buffer" : 0,
            "byteLength" : 2976,
            "byteOffset" : 121056
        },
        {
            "buffer" : 0,
            "byteLength" : 4608,
            "byteOffset" : 124032
        },
        {
            "buffer" : 0,
            "byteLength" : 4608,
            "byteOffset" : 128640
        },
        {
            "buffer" : 0,
            "byteLength" : 3072,
            "byteOffset" : 133248
        },
        {
            "buffer" : 0,
            "byteLength" : 1440,
            "byteOffset" : 136320
        }
    ],
    "buffers" : [
        {
            "byteLength" : 137760,
            "uri" : "data:application/octet-stream;base64,"
        }
    ]
}
