{
    "asset" : {
        "generator" : "Khronos glTF Blender I/O v1.6.16",
        "version" : "2.0"
    },
    "scene" : 0,
    "scenes" : [
        {
            "name" : "Scene",
            "nodes" : [
                5
            ]
        }
    ],
    "nodes" : [
        {
            "mesh" : 0,
            "name" : "plantPillow.002",
            "rotation" : [
                0.7071068286895752,
                0,
                0,
                0.7071067094802856
            ],
            "scale" : [
                1.0302705764770508,
                1.0302705764770508,
                1.0302705764770508
            ],
            "translation" : [
                -0.052146900445222855,
                0.7511506080627441,
                -0.020822525024414062
            ]
        },
        {
            "mesh" : 1,
            "name" : "plantPillowfoamGaskets"
        },
        {
            "mesh" : 2,
            "name" : "plantPillowStrings",
            "rotation" : [
                0.7071068286895752,
                0,
                0,
                0.7071067094802856
            ],
            "scale" : [
                1.0302705764770508,
                1.0302705764770508,
                1.0302705764770508
            ],
            "translation" : [
                -0.052146900445222855,
                0.7511506080627441,
                -0.020822525024414062
            ]
        },
        {
            "mesh" : 3,
            "name" : "plantPillowStrings2",
            "rotation" : [
                0.7071068286895752,
                0,
                0,
                0.7071067094802856
            ],
            "scale" : [
                1.0302705764770508,
                1.0302705764770508,
                1.0302705764770508
            ],
            "translation" : [
                -0.052146900445222855,
                0.7511506080627441,
                -0.020822525024414062
            ]
        },
        {
            "mesh" : 4,
            "name" : "plantPillowWicks"
        },
        {
            "children" : [
                0,
                1,
                2,
                3,
                4
            ],
            "name" : "plantPillow",
            "scale" : [
                0.009999999776482582,
                0.009999999776482582,
                0.009999999776482582
            ],
            "translation" : [
                0.0005214691045694053,
                -0.0075115058571100235,
                0.00020822524675168097
            ]
        }
    ],
    "materials" : [
        {
            "alphaMode" : "BLEND",
            "doubleSided" : true,
            "name" : "blinn1SG.003",
            "pbrMetallicRoughness" : {
                "baseColorFactor" : [
                    0,
                    0,
                    0,
                    1
                ],
                "metallicFactor" : 0,
                "roughnessFactor" : 0.2209821343421936
            }
        },
        {
            "doubleSided" : true,
            "name" : "plantPillowFoamGrey.001",
            "pbrMetallicRoughness" : {
                "baseColorFactor" : [
                    0.06071664020419121,
                    0.06071664020419121,
                    0.06071664020419121,
                    1
                ],
                "metallicFactor" : 0,
                "roughnessFactor" : 0.5527864098548889
            }
        },
        {
            "alphaMode" : "BLEND",
            "doubleSided" : true,
            "name" : "plantPillowStrings",
            "pbrMetallicRoughness" : {
                "baseColorFactor" : [
                    0.16998709738254547,
                    0.11609770357608795,
                    0.04849540442228317,
                    1
                ],
                "metallicFactor" : 0,
                "roughnessFactor" : 0.6919642686843872
            }
        },
        {
            "doubleSided" : true,
            "name" : "plantPillowWicksWhite.001",
            "pbrMetallicRoughness" : {
                "metallicFactor" : 0,
                "roughnessFactor" : 0.5527864098548889
            }
        }
    ],
    "meshes" : [
        {
            "name" : "plantPillow.002",
            "primitives" : [
                {
                    "attributes" : {
                        "POSITION" : 0,
                        "NORMAL" : 1,
                        "TEXCOORD_0" : 2
                    },
                    "indices" : 3,
                    "material" : 0
                }
            ]
        },
        {
            "name" : "Mesh.009",
            "primitives" : [
                {
                    "attributes" : {
                        "POSITION" : 4,
                        "NORMAL" : 5,
                        "TEXCOORD_0" : 6
                    },
                    "indices" : 7,
                    "material" : 1
                }
            ]
        },
        {
            "name" : "plantPillowStrings",
            "primitives" : [
                {
                    "attributes" : {
                        "POSITION" : 8,
                        "NORMAL" : 9,
                        "TEXCOORD_0" : 10
                    },
                    "indices" : 11,
                    "material" : 2
                }
            ]
        },
        {
            "name" : "plantPillowStrings2",
            "primitives" : [
                {
                    "attributes" : {
                        "POSITION" : 12,
                        "NORMAL" : 13,
                        "TEXCOORD_0" : 14
                    },
                    "indices" : 15,
                    "material" : 2
                }
            ]
        },
        {
            "name" : "Mesh.010",
            "primitives" : [
                {
                    "attributes" : {
                        "POSITION" : 16,
                        "NORMAL" : 17,
                        "TEXCOORD_0" : 18
                    },
                    "indices" : 19,
                    "material" : 3
                }
            ]
        }
    ],
    "accessors" : [
        {
            "bufferView" : 0,
            "componentType" : 5126,
            "count" : 709,
            "max" : [
                37.81267166137695,
                37.76350784301758,
                14.158881187438965
            ],
            "min" : [
                -37.70824432373047,
                -37.738895416259766,
                -12.600746154785156
            ],
            "type" : "VEC3"
        },
        {
            "bufferView" : 1,
            "componentType" : 5126,
            "count" : 709,
            "type" : "VEC3"
        },
        {
            "bufferView" : 2,
            "componentType" : 5126,
            "count" : 709,
            "type" : "VEC2"
        },
        {
            "bufferView" : 3,
            "componentType" : 5123,
            "count" : 2640,
            "type" : "SCALAR"
        },
        {
            "bufferView" : 4,
            "componentType" : 5126,
            "count" : 376,
            "max" : [
                21.78413200378418,
                14.063182830810547,
                25.592824935913086
            ],
            "min" : [
                -21.7841796875,
                11.44345474243164,
                -25.592849731445312
            ],
            "type" : "VEC3"
        },
        {
            "bufferView" : 5,
            "componentType" : 5126,
            "count" : 376,
            "type" : "VEC3"
        },
        {
            "bufferView" : 6,
            "componentType" : 5126,
            "count" : 376,
            "type" : "VEC2"
        },
        {
            "bufferView" : 7,
            "componentType" : 5123,
            "count" : 1056,
            "type" : "SCALAR"
        },
        {
            "bufferView" : 8,
            "componentType" : 5126,
            "count" : 648,
            "max" : [
                0.9308419823646545,
                60.63139343261719,
                3.2136290073394775
            ],
            "min" : [
                -0.48024600744247437,
                -60.63139343261719,
                -12.8715238571167
            ],
            "type" : "VEC3"
        },
        {
            "bufferView" : 9,
            "componentType" : 5126,
            "count" : 648,
            "type" : "VEC3"
        },
        {
            "bufferView" : 10,
            "componentType" : 5126,
            "count" : 648,
            "type" : "VEC2"
        },
        {
            "bufferView" : 11,
            "componentType" : 5123,
            "count" : 1872,
            "type" : "SCALAR"
        },
        {
            "bufferView" : 12,
            "componentType" : 5126,
            "count" : 648,
            "max" : [
                57.24818420410156,
                0.6018450260162354,
                9.289674758911133
            ],
            "min" : [
                -57.24818420410156,
                -1.2140899896621704,
                -13.132040977478027
            ],
            "type" : "VEC3"
        },
        {
            "bufferView" : 13,
            "componentType" : 5126,
            "count" : 648,
            "type" : "VEC3"
        },
        {
            "bufferView" : 14,
            "componentType" : 5126,
            "count" : 648,
            "type" : "VEC2"
        },
        {
            "bufferView" : 15,
            "componentType" : 5123,
            "count" : 1872,
            "type" : "SCALAR"
        },
        {
            "bufferView" : 16,
            "componentType" : 5126,
            "count" : 640,
            "max" : [
                19.86423683166504,
                14.91003131866455,
                19.41488265991211
            ],
            "min" : [
                -19.864238739013672,
                8.906567573547363,
                -19.414884567260742
            ],
            "type" : "VEC3"
        },
        {
            "bufferView" : 17,
            "componentType" : 5126,
            "count" : 640,
            "type" : "VEC3"
        },
        {
            "bufferView" : 18,
            "componentType" : 5126,
            "count" : 640,
            "type" : "VEC2"
        },
        {
            "bufferView" : 19,
            "componentType" : 5123,
            "count" : 1632,
            "type" : "SCALAR"
        }
    ],
    "bufferViews" : [
        {
            "buffer" : 0,
            "byteLength" : 8508,
            "byteOffset" : 0
        },
        {
            "buffer" : 0,
            "byteLength" : 8508,
            "byteOffset" : 8508
        },
        {
            "buffer" : 0,
            "byteLength" : 5672,
            "byteOffset" : 17016
        },
        {
            "buffer" : 0,
            "byteLength" : 5280,
            "byteOffset" : 22688
        },
        {
            "buffer" : 0,
            "byteLength" : 4512,
            "byteOffset" : 27968
        },
        {
            "buffer" : 0,
            "byteLength" : 4512,
            "byteOffset" : 32480
        },
        {
            "buffer" : 0,
            "byteLength" : 3008,
            "byteOffset" : 36992
        },
        {
            "buffer" : 0,
            "byteLength" : 2112,
            "byteOffset" : 40000
        },
        {
            "buffer" : 0,
            "byteLength" : 7776,
            "byteOffset" : 42112
        },
        {
            "buffer" : 0,
            "byteLength" : 7776,
            "byteOffset" : 49888
        },
        {
            "buffer" : 0,
            "byteLength" : 5184,
            "byteOffset" : 57664
        },
        {
            "buffer" : 0,
            "byteLength" : 3744,
            "byteOffset" : 62848
        },
        {
            "buffer" : 0,
            "byteLength" : 7776,
            "byteOffset" : 66592
        },
        {
            "buffer" : 0,
            "byteLength" : 7776,
            "byteOffset" : 74368
        },
        {
            "buffer" : 0,
            "byteLength" : 5184,
            "byteOffset" : 82144
        },
        {
            "buffer" : 0,
            "byteLength" : 3744,
            "byteOffset" : 87328
        },
        {
            "buffer" : 0,
            "byteLength" : 7680,
            "byteOffset" : 91072
        },
        {
            "buffer" : 0,
            "byteLength" : 7680,
            "byteOffset" : 98752
        },
        {
            "buffer" : 0,
            "byteLength" : 5120,
            "byteOffset" : 106432
        },
        {
            "buffer" : 0,
            "byteLength" : 3264,
            "byteOffset" : 111552
        }
    ],
    "buffers" : [
        {
            "byteLength" : 114816,
            "uri" : "data:application/octet-stream;base64,"
        }
    ]
}
