{
	"asset":{
		"generator":"Khronos glTF Blender I/O v3.5.30",
		"version":"2.0"
	},
	"scene":0,
	"scenes":[
		{
			"name":"Scene",
			"nodes":[
				0
			]
		}
	],
	"nodes":[
		{
			"mesh":0,
			"name":"solder.001",
			"rotation":[
				0.5,
				0.4999999403953552,
				-0.5,
				0.5000000596046448
			],
			"scale":[
				0.013984067365527153,
				0.013984067365527153,
				0.013984067365527153
			],
			"translation":[
				-0.03317077457904816,
				0.00017809384735301137,
				-0.000673227128572762
			]
		}
	],
	"materials":[
		{
			"doubleSided":true,
			"name":"Material.006",
			"pbrMetallicRoughness":{
				"baseColorTexture":{
					"index":0
				},
				"metallicFactor":0,
				"roughnessFactor":0.5
			}
		}
	],
	"meshes":[
		{
			"name":"Mesh.111",
			"primitives":[
				{
					"attributes":{
						"POSITION":0,
						"TEXCOORD_0":1,
						"NORMAL":2
					},
					"indices":3,
					"material":0
				}
			]
		}
	],
	"textures":[
		{
			"sampler":0,
			"source":0
		}
	],
	"images":[
		{
			"bufferView":4,
			"mimeType":"image/png",
			"name":"solder Base Color"
		}
	],
	"accessors":[
		{
			"bufferView":0,
			"componentType":5126,
			"count":1062,
			"max":[
				2.4890520572662354,
				-0.18578475713729858,
				-0.991360068321228
			],
			"min":[
				2.405510663986206,
				-0.26932623982429504,
				-1.4877893924713135
			],
			"type":"VEC3"
		},
		{
			"bufferView":1,
			"componentType":5126,
			"count":1062,
			"type":"VEC2"
		},
		{
			"bufferView":2,
			"componentType":5126,
			"count":1062,
			"type":"VEC3"
		},
		{
			"bufferView":3,
			"componentType":5123,
			"count":4224,
			"type":"SCALAR"
		}
	],
	"bufferViews":[
		{
			"buffer":0,
			"byteLength":12744,
			"byteOffset":0,
			"target":34962
		},
		{
			"buffer":0,
			"byteLength":8496,
			"byteOffset":12744,
			"target":34962
		},
		{
			"buffer":0,
			"byteLength":12744,
			"byteOffset":21240,
			"target":34962
		},
		{
			"buffer":0,
			"byteLength":8448,
			"byteOffset":33984,
			"target":34963
		},
		{
			"buffer":0,
			"byteLength":185728,
			"byteOffset":42432
		}
	],
	"samplers":[
		{
			"magFilter":9729,
			"minFilter":9987
		}
	],
	"buffers":[
		{
			"byteLength":228160,
			"uri":"data:application/octet-stream;base64,"
		}
	]
}
