{
	"asset":{
		"generator":"Khronos glTF Blender I/O v3.5.30",
		"version":"2.0"
	},
	"scene":0,
	"scenes":[
		{
			"name":"Scene",
			"nodes":[
				2
			]
		}
	],
	"nodes":[
		{
			"mesh":0,
			"name":"pHelix_3a",
			"translation":[
				0.002372836461290717,
				-0.0356646291911602,
				0.009978580288589
			]
		},
		{
			"mesh":1,
			"name":"pHelix_3b",
			"scale":[
				1.0000022649765015,
				1,
				1
			],
			"translation":[
				-0.0029040181543678045,
				-0.03854043409228325,
				0.0689791887998581
			]
		},
		{
			"children":[
				0,
				1
			],
			"mesh":2,
			"name":"wire_broken_03",
			"rotation":[
				0.5,
				0.4999999403953552,
				-0.5,
				0.5000000596046448
			],
			"scale":[
				1.398406744003296,
				1.398406744003296,
				1.398406744003296
			],
			"translation":[
				-3.573579788208008,
				2.362614393234253,
				-1.319041132926941
			]
		}
	],
	"materials":[
		{
			"doubleSided":true,
			"name":"helix_shader.001",
			"pbrMetallicRoughness":{
				"baseColorFactor":[
					0.22658143937587738,
					0.22658143937587738,
					0.22658143937587738,
					1
				],
				"metallicFactor":0,
				"roughnessFactor":0.5527864098548889
			}
		},
		{
			"doubleSided":true,
			"name":"wireBroken_shader.004",
			"pbrMetallicRoughness":{
				"baseColorFactor":[
					1,
					0.12332600355148315,
					0.1411157250404358,
					1
				],
				"metallicFactor":0,
				"roughnessFactor":0.5527864098548889
			}
		}
	],
	"meshes":[
		{
			"name":"Mesh.088",
			"primitives":[
				{
					"attributes":{
						"POSITION":0,
						"TEXCOORD_0":1,
						"NORMAL":2
					},
					"indices":3,
					"material":0
				}
			]
		},
		{
			"name":"Mesh.079",
			"primitives":[
				{
					"attributes":{
						"POSITION":4,
						"TEXCOORD_0":5,
						"NORMAL":6
					},
					"indices":7,
					"material":0
				}
			]
		},
		{
			"name":"Mesh.078",
			"primitives":[
				{
					"attributes":{
						"POSITION":8,
						"TEXCOORD_0":9,
						"NORMAL":10
					},
					"indices":11,
					"material":1
				}
			]
		}
	],
	"accessors":[
		{
			"bufferView":0,
			"componentType":5126,
			"count":1664,
			"max":[
				0.017786946147680283,
				0.019954213872551918,
				0.11447431892156601
			],
			"min":[
				-0.01736292615532875,
				-0.020646532997488976,
				-0.026352861896157265
			],
			"type":"VEC3"
		},
		{
			"bufferView":1,
			"componentType":5126,
			"count":1664,
			"type":"VEC2"
		},
		{
			"bufferView":2,
			"componentType":5126,
			"count":1664,
			"type":"VEC3"
		},
		{
			"bufferView":3,
			"componentType":5123,
			"count":4884,
			"type":"SCALAR"
		},
		{
			"bufferView":4,
			"componentType":5126,
			"count":1664,
			"max":[
				0.01736385188996792,
				0.026246830821037292,
				0.025766991078853607
			],
			"min":[
				-0.01778608001768589,
				-0.020756110548973083,
				-0.11355457454919815
			],
			"type":"VEC3"
		},
		{
			"bufferView":5,
			"componentType":5126,
			"count":1664,
			"type":"VEC2"
		},
		{
			"bufferView":6,
			"componentType":5126,
			"count":1664,
			"type":"VEC3"
		},
		{
			"bufferView":7,
			"componentType":5123,
			"count":4884,
			"type":"SCALAR"
		},
		{
			"bufferView":8,
			"componentType":5126,
			"count":192,
			"max":[
				0.05744710564613342,
				0.2247314155101776,
				0.7845470309257507
			],
			"min":[
				-0.05910751223564148,
				-0.17679013311862946,
				-0.849662721157074
			],
			"type":"VEC3"
		},
		{
			"bufferView":9,
			"componentType":5126,
			"count":192,
			"type":"VEC2"
		},
		{
			"bufferView":10,
			"componentType":5126,
			"count":192,
			"type":"VEC3"
		},
		{
			"bufferView":11,
			"componentType":5123,
			"count":480,
			"type":"SCALAR"
		}
	],
	"bufferViews":[
		{
			"buffer":0,
			"byteLength":19968,
			"byteOffset":0,
			"target":34962
		},
		{
			"buffer":0,
			"byteLength":13312,
			"byteOffset":19968,
			"target":34962
		},
		{
			"buffer":0,
			"byteLength":19968,
			"byteOffset":33280,
			"target":34962
		},
		{
			"buffer":0,
			"byteLength":9768,
			"byteOffset":53248,
			"target":34963
		},
		{
			"buffer":0,
			"byteLength":19968,
			"byteOffset":63016,
			"target":34962
		},
		{
			"buffer":0,
			"byteLength":13312,
			"byteOffset":82984,
			"target":34962
		},
		{
			"buffer":0,
			"byteLength":19968,
			"byteOffset":96296,
			"target":34962
		},
		{
			"buffer":0,
			"byteLength":9768,
			"byteOffset":116264,
			"target":34963
		},
		{
			"buffer":0,
			"byteLength":2304,
			"byteOffset":126032,
			"target":34962
		},
		{
			"buffer":0,
			"byteLength":1536,
			"byteOffset":128336,
			"target":34962
		},
		{
			"buffer":0,
			"byteLength":2304,
			"byteOffset":129872,
			"target":34962
		},
		{
			"buffer":0,
			"byteLength":960,
			"byteOffset":132176,
			"target":34963
		}
	],
	"buffers":[
		{
			"byteLength":133136,
			"uri":"data:application/octet-stream;base64,"
		}
	]
}
