{
	"asset":{
		"generator":"Khronos glTF Blender I/O v3.5.30",
		"version":"2.0"
	},
	"scene":0,
	"scenes":[
		{
			"name":"Scene",
			"nodes":[
				0
			]
		}
	],
	"nodes":[
		{
			"mesh":0,
			"name":"wire_twisted_3",
			"rotation":[
				0.5,
				0.4999999403953552,
				-0.5,
				0.5000000596046448
			],
			"scale":[
				0.013984067365527153,
				0.013984067365527153,
				0.013984067365527153
			],
			"translation":[
				-0.03317077457904816,
				0.00017809390556067228,
				5.6202170526375994e-05
			]
		}
	],
	"materials":[
		{
			"doubleSided":true,
			"name":"wireBroken_shader.002",
			"pbrMetallicRoughness":{
				"baseColorFactor":[
					1,
					0.12332600355148315,
					0.1411157250404358,
					1
				],
				"metallicFactor":0,
				"roughnessFactor":0.5527864098548889
			}
		}
	],
	"meshes":[
		{
			"name":"Mesh.088",
			"primitives":[
				{
					"attributes":{
						"POSITION":0,
						"TEXCOORD_0":1,
						"NORMAL":2
					},
					"indices":3,
					"material":0
				}
			]
		}
	],
	"accessors":[
		{
			"bufferView":0,
			"componentType":5126,
			"count":440,
			"max":[
				0.5169703960418701,
				0.027757395058870316,
				-0.9346699714660645
			],
			"min":[
				0.39235591888427734,
				-0.3856390118598938,
				-2.3857178688049316
			],
			"type":"VEC3"
		},
		{
			"bufferView":1,
			"componentType":5126,
			"count":440,
			"type":"VEC2"
		},
		{
			"bufferView":2,
			"componentType":5126,
			"count":440,
			"type":"VEC3"
		},
		{
			"bufferView":3,
			"componentType":5123,
			"count":1920,
			"type":"SCALAR"
		}
	],
	"bufferViews":[
		{
			"buffer":0,
			"byteLength":5280,
			"byteOffset":0,
			"target":34962
		},
		{
			"buffer":0,
			"byteLength":3520,
			"byteOffset":5280,
			"target":34962
		},
		{
			"buffer":0,
			"byteLength":5280,
			"byteOffset":8800,
			"target":34962
		},
		{
			"buffer":0,
			"byteLength":3840,
			"byteOffset":14080,
			"target":34963
		}
	],
	"buffers":[
		{
			"byteLength":17920,
			"uri":"data:application/octet-stream;base64,"
		}
	]
}
