{
	"asset":{
		"generator":"Khronos glTF Blender I/O v3.5.30",
		"version":"2.0"
	},
	"scene":0,
	"scenes":[
		{
			"name":"Scene",
			"nodes":[
				0
			]
		}
	],
	"nodes":[
		{
			"mesh":0,
			"name":"wire_twisted_1",
			"rotation":[
				0.5,
				0.4999999403953552,
				-0.5,
				0.5000000596046448
			],
			"scale":[
				1.398406744003296,
				1.398406744003296,
				1.398406744003296
			],
			"translation":[
				-3.592374563217163,
				2.257753849029541,
				-1.338446021080017
			]
		}
	],
	"materials":[
		{
			"doubleSided":true,
			"name":"wireBroken_shader.002",
			"pbrMetallicRoughness":{
				"baseColorFactor":[
					1,
					0.12332600355148315,
					0.1411157250404358,
					1
				],
				"metallicFactor":0,
				"roughnessFactor":0.5527864098548889
			}
		}
	],
	"meshes":[
		{
			"name":"Mesh.071",
			"primitives":[
				{
					"attributes":{
						"POSITION":0,
						"TEXCOORD_0":1,
						"NORMAL":2
					},
					"indices":3,
					"material":0
				}
			]
		}
	],
	"accessors":[
		{
			"bufferView":0,
			"componentType":5126,
			"count":440,
			"max":[
				0.05988359451293945,
				0.22962749004364014,
				0.7030822038650513
			],
			"min":[
				-0.0647309422492981,
				-0.18376891314983368,
				-0.7479656934738159
			],
			"type":"VEC3"
		},
		{
			"bufferView":1,
			"componentType":5126,
			"count":440,
			"type":"VEC2"
		},
		{
			"bufferView":2,
			"componentType":5126,
			"count":440,
			"type":"VEC3"
		},
		{
			"bufferView":3,
			"componentType":5123,
			"count":1920,
			"type":"SCALAR"
		}
	],
	"bufferViews":[
		{
			"buffer":0,
			"byteLength":5280,
			"byteOffset":0,
			"target":34962
		},
		{
			"buffer":0,
			"byteLength":3520,
			"byteOffset":5280,
			"target":34962
		},
		{
			"buffer":0,
			"byteLength":5280,
			"byteOffset":8800,
			"target":34962
		},
		{
			"buffer":0,
			"byteLength":3840,
			"byteOffset":14080,
			"target":34963
		}
	],
	"buffers":[
		{
			"byteLength":17920,
			"uri":"data:application/octet-stream;base64,"
		}
	]
}
