{
	"asset":{
		"generator":"Khronos glTF Blender I/O v3.5.30",
		"version":"2.0"
	},
	"scene":0,
	"scenes":[
		{
			"name":"Scene",
			"nodes":[
				0
			]
		}
	],
	"nodes":[
		{
			"mesh":0,
			"name":"wirecutterOpen.001",
			"rotation":[
				0.5,
				0.4999999403953552,
				-0.5,
				0.5000000596046448
			],
			"scale":[
				0.013984067365527153,
				0.013984067365527153,
				0.013984067365527153
			],
			"translation":[
				-0.03317077457904816,
				0.00017809393466450274,
				0.00047634559450671077
			]
		}
	],
	"materials":[
		{
			"doubleSided":true,
			"name":"Material.004",
			"pbrMetallicRoughness":{
				"baseColorTexture":{
					"index":0
				},
				"metallicFactor":0,
				"roughnessFactor":0.5
			}
		}
	],
	"meshes":[
		{
			"name":"Mesh.107",
			"primitives":[
				{
					"attributes":{
						"POSITION":0,
						"TEXCOORD_0":1,
						"NORMAL":2
					},
					"indices":3,
					"material":0
				}
			]
		}
	],
	"textures":[
		{
			"sampler":0,
			"source":0
		}
	],
	"images":[
		{
			"bufferView":4,
			"mimeType":"image/png",
			"name":"wirecutterOpen Base Color"
		}
	],
	"accessors":[
		{
			"bufferView":0,
			"componentType":5126,
			"count":4607,
			"max":[
				1.8955483436584473,
				-0.2108631134033203,
				-1.0034942626953125
			],
			"min":[
				1.6997284889221191,
				-0.23695117235183716,
				-1.3917827606201172
			],
			"type":"VEC3"
		},
		{
			"bufferView":1,
			"componentType":5126,
			"count":4607,
			"type":"VEC2"
		},
		{
			"bufferView":2,
			"componentType":5126,
			"count":4607,
			"type":"VEC3"
		},
		{
			"bufferView":3,
			"componentType":5123,
			"count":16368,
			"type":"SCALAR"
		}
	],
	"bufferViews":[
		{
			"buffer":0,
			"byteLength":55284,
			"byteOffset":0,
			"target":34962
		},
		{
			"buffer":0,
			"byteLength":36856,
			"byteOffset":55284,
			"target":34962
		},
		{
			"buffer":0,
			"byteLength":55284,
			"byteOffset":92140,
			"target":34962
		},
		{
			"buffer":0,
			"byteLength":32736,
			"byteOffset":147424,
			"target":34963
		},
		{
			"buffer":0,
			"byteLength":109190,
			"byteOffset":180160
		}
	],
	"samplers":[
		{
			"magFilter":9729,
			"minFilter":9987
		}
	],
	"buffers":[
		{
			"byteLength":289352,
			"uri":"data:application/octet-stream;base64,"
		}
	]
}
