{
    "asset" : {
        "generator" : "Khronos glTF Blender I/O v1.6.16",
        "version" : "2.0"
    },
    "scene" : 0,
    "scenes" : [
        {
            "name" : "Scene",
            "nodes" : [
                1
            ]
        }
    ],
    "nodes" : [
        {
            "mesh" : 0,
            "name" : "wire_fixed_1c.002",
            "scale" : [
                100,
                99.99999237060547,
                99.99999237060547
            ]
        },
        {
            "children" : [
                0
            ],
            "name" : "group4",
            "rotation" : [
                0.7071068286895752,
                0,
                0,
                0.7071067094802856
            ],
            "scale" : [
                0.009999999776482582,
                0.009999999776482582,
                0.009999999776482582
            ]
        }
    ],
    "materials" : [
        {
            "doubleSided" : true,
            "name" : "initialShadingGroup.006",
            "pbrMetallicRoughness" : {
                "baseColorFactor" : [
                    0,
                    1,
                    0,
                    1
                ],
                "metallicFactor" : 0,
                "roughnessFactor" : 0.858578622341156
            }
        },
        {
            "doubleSided" : true,
            "name" : "lambert2",
            "pbrMetallicRoughness" : {
                "baseColorFactor" : [
                    0.03333333507180214,
                    0.03333333507180214,
                    0.03333333507180214,
                    1
                ],
                "roughnessFactor" : 0.5527864098548889
            }
        }
    ],
    "meshes" : [
        {
            "name" : "Mesh.008",
            "primitives" : [
                {
                    "attributes" : {
                        "POSITION" : 0,
                        "NORMAL" : 1,
                        "TEXCOORD_0" : 2
                    },
                    "indices" : 3,
                    "material" : 0
                },
                {
                    "attributes" : {
                        "POSITION" : 4,
                        "NORMAL" : 5,
                        "TEXCOORD_0" : 6
                    },
                    "indices" : 7,
                    "material" : 1
                }
            ]
        }
    ],
    "accessors" : [
        {
            "bufferView" : 0,
            "componentType" : 5126,
            "count" : 380,
            "max" : [
                0.23763598501682281,
                0.16481800377368927,
                -1.2373640537261963
            ],
            "min" : [
                -0.01736599951982498,
                0.028762999922037125,
                -2.8021440505981445
            ],
            "type" : "VEC3"
        },
        {
            "bufferView" : 1,
            "componentType" : 5126,
            "count" : 380,
            "type" : "VEC3"
        },
        {
            "bufferView" : 2,
            "componentType" : 5126,
            "count" : 380,
            "type" : "VEC2"
        },
        {
            "bufferView" : 3,
            "componentType" : 5123,
            "count" : 1632,
            "type" : "SCALAR"
        },
        {
            "bufferView" : 4,
            "componentType" : 5126,
            "count" : 238,
            "max" : [
                0.22001412510871887,
                0.1729680299758911,
                -1.7564692497253418
            ],
            "min" : [
                0.039703916758298874,
                0.08172930777072906,
                -2.053241491317749
            ],
            "type" : "VEC3"
        },
        {
            "bufferView" : 5,
            "componentType" : 5126,
            "count" : 238,
            "type" : "VEC3"
        },
        {
            "bufferView" : 6,
            "componentType" : 5126,
            "count" : 238,
            "type" : "VEC2"
        },
        {
            "bufferView" : 7,
            "componentType" : 5123,
            "count" : 864,
            "type" : "SCALAR"
        }
    ],
    "bufferViews" : [
        {
            "buffer" : 0,
            "byteLength" : 4560,
            "byteOffset" : 0
        },
        {
            "buffer" : 0,
            "byteLength" : 4560,
            "byteOffset" : 4560
        },
        {
            "buffer" : 0,
            "byteLength" : 3040,
            "byteOffset" : 9120
        },
        {
            "buffer" : 0,
            "byteLength" : 3264,
            "byteOffset" : 12160
        },
        {
            "buffer" : 0,
            "byteLength" : 2856,
            "byteOffset" : 15424
        },
        {
            "buffer" : 0,
            "byteLength" : 2856,
            "byteOffset" : 18280
        },
        {
            "buffer" : 0,
            "byteLength" : 1904,
            "byteOffset" : 21136
        },
        {
            "buffer" : 0,
            "byteLength" : 1728,
            "byteOffset" : 23040
        }
    ],
    "buffers" : [
        {
            "byteLength" : 24768,
            "uri" : "data:application/octet-stream;base64,"
        }
    ]
}
