{
    "asset" : {
        "generator" : "Khronos glTF Blender I/O v1.6.16",
        "version" : "2.0"
    },
    "scene" : 0,
    "scenes" : [
        {
            "name" : "Scene",
            "nodes" : [
                3
            ]
        }
    ],
    "nodes" : [
        {
            "mesh" : 0,
            "name" : "pHelix1",
            "scale" : [
                0.013562709093093872,
                0.013562710024416447,
                0.013562710024416447
            ],
            "translation" : [
                -0.2632608413696289,
                0.12202098220586777,
                -1.9586009979248047
            ]
        },
        {
            "mesh" : 1,
            "name" : "pHelix2",
            "rotation" : [
                0,
                -1,
                0,
                7.549790126404332e-08
            ],
            "scale" : [
                0.013562709093093872,
                0.013562710024416447,
                0.013562710024416447
            ],
            "translation" : [
                -0.2577006220817566,
                0.12202098965644836,
                -1.9184657335281372
            ]
        },
        {
            "children" : [
                0,
                1
            ],
            "mesh" : 2,
            "name" : "wire_broken_3c",
            "scale" : [
                100,
                99.99999237060547,
                99.99999237060547
            ]
        },
        {
            "children" : [
                2
            ],
            "name" : "group3",
            "rotation" : [
                0.7071068286895752,
                0,
                0,
                0.7071067094802856
            ],
            "scale" : [
                0.009999999776482582,
                0.009999999776482582,
                0.009999999776482582
            ]
        }
    ],
    "materials" : [
        {
            "doubleSided" : true,
            "name" : "lambert1",
            "pbrMetallicRoughness" : {
                "baseColorFactor" : [
                    0.5,
                    0.5,
                    0.5,
                    1
                ],
                "roughnessFactor" : 0.5527864098548889
            }
        },
        {
            "doubleSided" : true,
            "name" : "initialShadingGroup.001",
            "pbrMetallicRoughness" : {
                "baseColorFactor" : [
                    1,
                    0,
                    0,
                    1
                ],
                "metallicFactor" : 0,
                "roughnessFactor" : 0.858578622341156
            }
        }
    ],
    "meshes" : [
        {
            "name" : "Mesh.044",
            "primitives" : [
                {
                    "attributes" : {
                        "POSITION" : 0,
                        "NORMAL" : 1,
                        "TEXCOORD_0" : 2
                    },
                    "indices" : 3,
                    "material" : 0
                }
            ]
        },
        {
            "name" : "Mesh.043",
            "primitives" : [
                {
                    "attributes" : {
                        "POSITION" : 4,
                        "NORMAL" : 5,
                        "TEXCOORD_0" : 6
                    },
                    "indices" : 3,
                    "material" : 0
                }
            ]
        },
        {
            "name" : "Mesh.042",
            "primitives" : [
                {
                    "attributes" : {
                        "POSITION" : 7,
                        "NORMAL" : 8,
                        "TEXCOORD_0" : 9
                    },
                    "indices" : 10,
                    "material" : 1
                }
            ]
        }
    ],
    "accessors" : [
        {
            "bufferView" : 0,
            "componentType" : 5126,
            "count" : 1664,
            "max" : [
                1.4387179613113403,
                1.4336618185043335,
                8.677228927612305
            ],
            "min" : [
                -1.422949194908142,
                -1.43366277217865,
                -2.8259434700012207
            ],
            "type" : "VEC3"
        },
        {
            "bufferView" : 1,
            "componentType" : 5126,
            "count" : 1664,
            "type" : "VEC3"
        },
        {
            "bufferView" : 2,
            "componentType" : 5126,
            "count" : 1664,
            "type" : "VEC2"
        },
        {
            "bufferView" : 3,
            "componentType" : 5123,
            "count" : 4884,
            "type" : "SCALAR"
        },
        {
            "bufferView" : 4,
            "componentType" : 5126,
            "count" : 1664,
            "max" : [
                1.4387179613113403,
                1.4336618185043335,
                8.677228927612305
            ],
            "min" : [
                -1.422949194908142,
                -1.43366277217865,
                -2.8259434700012207
            ],
            "type" : "VEC3"
        },
        {
            "bufferView" : 5,
            "componentType" : 5126,
            "count" : 1664,
            "type" : "VEC3"
        },
        {
            "bufferView" : 6,
            "componentType" : 5126,
            "count" : 1664,
            "type" : "VEC2"
        },
        {
            "bufferView" : 7,
            "componentType" : 5126,
            "count" : 440,
            "max" : [
                -0.18242399394512177,
                0.15970799326896667,
                -1.2373640537261963
            ],
            "min" : [
                -0.32559600472450256,
                0.014886000193655491,
                -2.8021440505981445
            ],
            "type" : "VEC3"
        },
        {
            "bufferView" : 8,
            "componentType" : 5126,
            "count" : 440,
            "type" : "VEC3"
        },
        {
            "bufferView" : 9,
            "componentType" : 5126,
            "count" : 440,
            "type" : "VEC2"
        },
        {
            "bufferView" : 10,
            "componentType" : 5123,
            "count" : 1920,
            "type" : "SCALAR"
        }
    ],
    "bufferViews" : [
        {
            "buffer" : 0,
            "byteLength" : 19968,
            "byteOffset" : 0
        },
        {
            "buffer" : 0,
            "byteLength" : 19968,
            "byteOffset" : 19968
        },
        {
            "buffer" : 0,
            "byteLength" : 13312,
            "byteOffset" : 39936
        },
        {
            "buffer" : 0,
            "byteLength" : 9768,
            "byteOffset" : 53248
        },
        {
            "buffer" : 0,
            "byteLength" : 19968,
            "byteOffset" : 63016
        },
        {
            "buffer" : 0,
            "byteLength" : 19968,
            "byteOffset" : 82984
        },
        {
            "buffer" : 0,
            "byteLength" : 13312,
            "byteOffset" : 102952
        },
        {
            "buffer" : 0,
            "byteLength" : 5280,
            "byteOffset" : 116264
        },
        {
            "buffer" : 0,
            "byteLength" : 5280,
            "byteOffset" : 121544
        },
        {
            "buffer" : 0,
            "byteLength" : 3520,
            "byteOffset" : 126824
        },
        {
            "buffer" : 0,
            "byteLength" : 3840,
            "byteOffset" : 130344
        }
    ],
    "buffers" : [
        {
            "byteLength" : 134184,
            "uri" : "data:application/octet-stream;base64,"
        }
    ]
}
