{
    "asset" : {
        "generator" : "Khronos glTF Blender I/O v1.6.16",
        "version" : "2.0"
    },
    "scene" : 0,
    "scenes" : [
        {
            "name" : "Scene",
            "nodes" : [
                1
            ]
        }
    ],
    "nodes" : [
        {
            "mesh" : 0,
            "name" : "wire_fixed_2c.001",
            "scale" : [
                100,
                99.99999237060547,
                99.99999237060547
            ]
        },
        {
            "children" : [
                0
            ],
            "name" : "group4",
            "rotation" : [
                0.7071068286895752,
                0,
                0,
                0.7071067094802856
            ],
            "scale" : [
                0.009999999776482582,
                0.009999999776482582,
                0.009999999776482582
            ]
        }
    ],
    "materials" : [
        {
            "doubleSided" : true,
            "name" : "initialShadingGroup.003",
            "pbrMetallicRoughness" : {
                "baseColorFactor" : [
                    0,
                    1,
                    0,
                    1
                ],
                "metallicFactor" : 0,
                "roughnessFactor" : 0.858578622341156
            }
        },
        {
            "doubleSided" : true,
            "name" : "lambert2",
            "pbrMetallicRoughness" : {
                "baseColorFactor" : [
                    0.03333333507180214,
                    0.03333333507180214,
                    0.03333333507180214,
                    1
                ],
                "roughnessFactor" : 0.5527864098548889
            }
        }
    ],
    "meshes" : [
        {
            "name" : "Mesh.031",
            "primitives" : [
                {
                    "attributes" : {
                        "POSITION" : 0,
                        "NORMAL" : 1,
                        "TEXCOORD_0" : 2
                    },
                    "indices" : 3,
                    "material" : 0
                },
                {
                    "attributes" : {
                        "POSITION" : 4,
                        "NORMAL" : 5,
                        "TEXCOORD_0" : 6
                    },
                    "indices" : 7,
                    "material" : 1
                }
            ]
        }
    ],
    "accessors" : [
        {
            "bufferView" : 0,
            "componentType" : 5126,
            "count" : 400,
            "max" : [
                0.29698801040649414,
                0.10916098952293396,
                -1.2373640537261963
            ],
            "min" : [
                -0.1270589977502823,
                -0.0316770002245903,
                -2.8021440505981445
            ],
            "type" : "VEC3"
        },
        {
            "bufferView" : 1,
            "componentType" : 5126,
            "count" : 400,
            "type" : "VEC3"
        },
        {
            "bufferView" : 2,
            "componentType" : 5126,
            "count" : 400,
            "type" : "VEC2"
        },
        {
            "bufferView" : 3,
            "componentType" : 5123,
            "count" : 1728,
            "type" : "SCALAR"
        },
        {
            "bufferView" : 4,
            "componentType" : 5126,
            "count" : 220,
            "max" : [
                -0.043731290847063065,
                0.06667456030845642,
                -1.8777363300323486
            ],
            "min" : [
                -0.14205265045166016,
                -0.021319931373000145,
                -2.21887469291687
            ],
            "type" : "VEC3"
        },
        {
            "bufferView" : 5,
            "componentType" : 5126,
            "count" : 220,
            "type" : "VEC3"
        },
        {
            "bufferView" : 6,
            "componentType" : 5126,
            "count" : 220,
            "type" : "VEC2"
        },
        {
            "bufferView" : 7,
            "componentType" : 5123,
            "count" : 768,
            "type" : "SCALAR"
        }
    ],
    "bufferViews" : [
        {
            "buffer" : 0,
            "byteLength" : 4800,
            "byteOffset" : 0
        },
        {
            "buffer" : 0,
            "byteLength" : 4800,
            "byteOffset" : 4800
        },
        {
            "buffer" : 0,
            "byteLength" : 3200,
            "byteOffset" : 9600
        },
        {
            "buffer" : 0,
            "byteLength" : 3456,
            "byteOffset" : 12800
        },
        {
            "buffer" : 0,
            "byteLength" : 2640,
            "byteOffset" : 16256
        },
        {
            "buffer" : 0,
            "byteLength" : 2640,
            "byteOffset" : 18896
        },
        {
            "buffer" : 0,
            "byteLength" : 1760,
            "byteOffset" : 21536
        },
        {
            "buffer" : 0,
            "byteLength" : 1536,
            "byteOffset" : 23296
        }
    ],
    "buffers" : [
        {
            "byteLength" : 24832,
            "uri" : "data:application/octet-stream;base64,"
        }
    ]
}
