{
    "asset" : {
        "generator" : "Khronos glTF Blender I/O v1.6.16",
        "version" : "2.0"
    },
    "scene" : 0,
    "scenes" : [
        {
            "name" : "Scene",
            "nodes" : [
                3
            ]
        }
    ],
    "nodes" : [
        {
            "mesh" : 0,
            "name" : "pHelix5",
            "scale" : [
                0.7826155424118042,
                0.7826155424118042,
                0.7546229362487793
            ],
            "translation" : [
                0.03534494340419769,
                0.13527773320674896,
                -0.4324291944503784
            ]
        },
        {
            "mesh" : 1,
            "name" : "pHelix6",
            "rotation" : [
                0,
                0,
                -0.1253075748682022,
                0.9921179413795471
            ],
            "scale" : [
                0.782615602016449,
                0.782615602016449,
                0.7546229362487793
            ],
            "translation" : [
                0.03239961713552475,
                0.15831367671489716,
                -0.456770658493042
            ]
        },
        {
            "children" : [
                0,
                1
            ],
            "mesh" : 2,
            "name" : "wire_broken_1c.001",
            "scale" : [
                100,
                99.99999237060547,
                99.99999237060547
            ]
        },
        {
            "children" : [
                2
            ],
            "name" : "group3",
            "rotation" : [
                0.7071068286895752,
                0,
                0,
                0.7071067094802856
            ],
            "scale" : [
                0.009999999776482582,
                0.009999999776482582,
                0.009999999776482582
            ]
        }
    ],
    "materials" : [
        {
            "doubleSided" : true,
            "name" : "mat_metal",
            "pbrMetallicRoughness" : {
                "baseColorFactor" : [
                    0.5,
                    0.5,
                    0.5,
                    1
                ],
                "roughnessFactor" : 0.5527864098548889
            }
        },
        {
            "doubleSided" : true,
            "name" : "lambert1",
            "pbrMetallicRoughness" : {
                "baseColorFactor" : [
                    0.5,
                    0.5,
                    0.5,
                    1
                ],
                "roughnessFactor" : 0.5527864098548889
            }
        },
        {
            "doubleSided" : true,
            "name" : "initialShadingGroup.001",
            "pbrMetallicRoughness" : {
                "baseColorFactor" : [
                    1,
                    0,
                    0,
                    1
                ],
                "metallicFactor" : 0,
                "roughnessFactor" : 0.858578622341156
            }
        }
    ],
    "meshes" : [
        {
            "name" : "Mesh.037",
            "primitives" : [
                {
                    "attributes" : {
                        "POSITION" : 0,
                        "NORMAL" : 1,
                        "TEXCOORD_0" : 2
                    },
                    "indices" : 3,
                    "material" : 0
                }
            ]
        },
        {
            "name" : "Mesh.038",
            "primitives" : [
                {
                    "attributes" : {
                        "POSITION" : 4,
                        "NORMAL" : 5,
                        "TEXCOORD_0" : 6
                    },
                    "indices" : 7,
                    "material" : 1
                }
            ]
        },
        {
            "name" : "Mesh.036",
            "primitives" : [
                {
                    "attributes" : {
                        "POSITION" : 8,
                        "NORMAL" : 9,
                        "TEXCOORD_0" : 10
                    },
                    "indices" : 11,
                    "material" : 2
                }
            ]
        }
    ],
    "accessors" : [
        {
            "bufferView" : 0,
            "componentType" : 5126,
            "count" : 1664,
            "max" : [
                0.13882732391357422,
                0.0758739709854126,
                -1.8921873569488525
            ],
            "min" : [
                0.09995818138122559,
                0.03700363636016846,
                -2.0482025146484375
            ],
            "type" : "VEC3"
        },
        {
            "bufferView" : 1,
            "componentType" : 5126,
            "count" : 1664,
            "type" : "VEC3"
        },
        {
            "bufferView" : 2,
            "componentType" : 5126,
            "count" : 1664,
            "type" : "VEC2"
        },
        {
            "bufferView" : 3,
            "componentType" : 5123,
            "count" : 4884,
            "type" : "SCALAR"
        },
        {
            "bufferView" : 4,
            "componentType" : 5126,
            "count" : 1664,
            "max" : [
                0.13235381245613098,
                0.07556506991386414,
                -1.852670669555664
            ],
            "min" : [
                0.09350687265396118,
                0.03647932410240173,
                -1.966688871383667
            ],
            "type" : "VEC3"
        },
        {
            "bufferView" : 5,
            "componentType" : 5126,
            "count" : 1664,
            "type" : "VEC3"
        },
        {
            "bufferView" : 6,
            "componentType" : 5126,
            "count" : 1664,
            "type" : "VEC2"
        },
        {
            "bufferView" : 7,
            "componentType" : 5123,
            "count" : 4884,
            "type" : "SCALAR"
        },
        {
            "bufferView" : 8,
            "componentType" : 5126,
            "count" : 524,
            "max" : [
                0.23840199410915375,
                0.21128499507904053,
                -1.2373640537261963
            ],
            "min" : [
                -0.01736599951982498,
                0.028762999922037125,
                -2.8021440505981445
            ],
            "type" : "VEC3"
        },
        {
            "bufferView" : 9,
            "componentType" : 5126,
            "count" : 524,
            "type" : "VEC3"
        },
        {
            "bufferView" : 10,
            "componentType" : 5126,
            "count" : 524,
            "type" : "VEC2"
        },
        {
            "bufferView" : 11,
            "componentType" : 5123,
            "count" : 2304,
            "type" : "SCALAR"
        }
    ],
    "bufferViews" : [
        {
            "buffer" : 0,
            "byteLength" : 19968,
            "byteOffset" : 0
        },
        {
            "buffer" : 0,
            "byteLength" : 19968,
            "byteOffset" : 19968
        },
        {
            "buffer" : 0,
            "byteLength" : 13312,
            "byteOffset" : 39936
        },
        {
            "buffer" : 0,
            "byteLength" : 9768,
            "byteOffset" : 53248
        },
        {
            "buffer" : 0,
            "byteLength" : 19968,
            "byteOffset" : 63016
        },
        {
            "buffer" : 0,
            "byteLength" : 19968,
            "byteOffset" : 82984
        },
        {
            "buffer" : 0,
            "byteLength" : 13312,
            "byteOffset" : 102952
        },
        {
            "buffer" : 0,
            "byteLength" : 9768,
            "byteOffset" : 116264
        },
        {
            "buffer" : 0,
            "byteLength" : 6288,
            "byteOffset" : 126032
        },
        {
            "buffer" : 0,
            "byteLength" : 6288,
            "byteOffset" : 132320
        },
        {
            "buffer" : 0,
            "byteLength" : 4192,
            "byteOffset" : 138608
        },
        {
            "buffer" : 0,
            "byteLength" : 4608,
            "byteOffset" : 142800
        }
    ],
    "buffers" : [
        {
            "byteLength" : 147408,
            "uri" : "data:application/octet-stream;base64,"
        }
    ]
}
