{
    "asset" : {
        "generator" : "Khronos glTF Blender I/O v1.6.16",
        "version" : "2.0"
    },
    "scene" : 0,
    "scenes" : [
        {
            "name" : "Scene",
            "nodes" : [
                3
            ]
        }
    ],
    "nodes" : [
        {
            "mesh" : 0,
            "name" : "pHelix3",
            "translation" : [
                0.16342583298683167,
                -0.09149456024169922,
                -0.012049078941345215
            ]
        },
        {
            "mesh" : 1,
            "name" : "pHelix4",
            "translation" : [
                0.16342583298683167,
                -0.09149456024169922,
                -0.012049078941345215
            ]
        },
        {
            "children" : [
                0,
                1
            ],
            "mesh" : 2,
            "name" : "wire_broken_2c",
            "scale" : [
                100,
                99.99999237060547,
                99.99999237060547
            ]
        },
        {
            "children" : [
                2
            ],
            "name" : "group3",
            "rotation" : [
                0.7071068286895752,
                0,
                0,
                0.7071067094802856
            ],
            "scale" : [
                0.009999999776482582,
                0.009999999776482582,
                0.009999999776482582
            ]
        }
    ],
    "materials" : [
        {
            "doubleSided" : true,
            "name" : "lambert1",
            "pbrMetallicRoughness" : {
                "baseColorFactor" : [
                    0.5,
                    0.5,
                    0.5,
                    1
                ],
                "roughnessFactor" : 0.5527864098548889
            }
        },
        {
            "doubleSided" : true,
            "name" : "initialShadingGroup.001",
            "pbrMetallicRoughness" : {
                "baseColorFactor" : [
                    1,
                    0,
                    0,
                    1
                ],
                "metallicFactor" : 0,
                "roughnessFactor" : 0.858578622341156
            }
        }
    ],
    "meshes" : [
        {
            "name" : "Mesh.041",
            "primitives" : [
                {
                    "attributes" : {
                        "POSITION" : 0,
                        "NORMAL" : 1,
                        "TEXCOORD_0" : 2
                    },
                    "indices" : 3,
                    "material" : 0
                }
            ]
        },
        {
            "name" : "Mesh.040",
            "primitives" : [
                {
                    "attributes" : {
                        "POSITION" : 4,
                        "NORMAL" : 5,
                        "TEXCOORD_0" : 6
                    },
                    "indices" : 7,
                    "material" : 0
                }
            ]
        },
        {
            "name" : "Mesh.039",
            "primitives" : [
                {
                    "attributes" : {
                        "POSITION" : 8,
                        "NORMAL" : 9,
                        "TEXCOORD_0" : 10
                    },
                    "indices" : 11,
                    "material" : 1
                }
            ]
        }
    ],
    "accessors" : [
        {
            "bufferView" : 0,
            "componentType" : 5126,
            "count" : 1664,
            "max" : [
                -0.24374794960021973,
                0.141465425491333,
                -1.8409137725830078
            ],
            "min" : [
                -0.282559871673584,
                0.1025766134262085,
                -1.9969285726547241
            ],
            "type" : "VEC3"
        },
        {
            "bufferView" : 1,
            "componentType" : 5126,
            "count" : 1664,
            "type" : "VEC3"
        },
        {
            "bufferView" : 2,
            "componentType" : 5126,
            "count" : 1664,
            "type" : "VEC2"
        },
        {
            "bufferView" : 3,
            "componentType" : 5123,
            "count" : 4884,
            "type" : "SCALAR"
        },
        {
            "bufferView" : 4,
            "componentType" : 5126,
            "count" : 1664,
            "max" : [
                -0.23840153217315674,
                0.141465425491333,
                -1.8801383972167969
            ],
            "min" : [
                -0.27721357345581055,
                0.1025766134262085,
                -2.036153793334961
            ],
            "type" : "VEC3"
        },
        {
            "bufferView" : 5,
            "componentType" : 5126,
            "count" : 1664,
            "type" : "VEC3"
        },
        {
            "bufferView" : 6,
            "componentType" : 5126,
            "count" : 1664,
            "type" : "VEC2"
        },
        {
            "bufferView" : 7,
            "componentType" : 5123,
            "count" : 4884,
            "type" : "SCALAR"
        },
        {
            "bufferView" : 8,
            "componentType" : 5126,
            "count" : 520,
            "max" : [
                0.29698801040649414,
                0.1091260015964508,
                -1.2373640537261963
            ],
            "min" : [
                -0.13946600258350372,
                -0.0316770002245903,
                -2.8021440505981445
            ],
            "type" : "VEC3"
        },
        {
            "bufferView" : 9,
            "componentType" : 5126,
            "count" : 520,
            "type" : "VEC3"
        },
        {
            "bufferView" : 10,
            "componentType" : 5126,
            "count" : 520,
            "type" : "VEC2"
        },
        {
            "bufferView" : 11,
            "componentType" : 5123,
            "count" : 2304,
            "type" : "SCALAR"
        }
    ],
    "bufferViews" : [
        {
            "buffer" : 0,
            "byteLength" : 19968,
            "byteOffset" : 0
        },
        {
            "buffer" : 0,
            "byteLength" : 19968,
            "byteOffset" : 19968
        },
        {
            "buffer" : 0,
            "byteLength" : 13312,
            "byteOffset" : 39936
        },
        {
            "buffer" : 0,
            "byteLength" : 9768,
            "byteOffset" : 53248
        },
        {
            "buffer" : 0,
            "byteLength" : 19968,
            "byteOffset" : 63016
        },
        {
            "buffer" : 0,
            "byteLength" : 19968,
            "byteOffset" : 82984
        },
        {
            "buffer" : 0,
            "byteLength" : 13312,
            "byteOffset" : 102952
        },
        {
            "buffer" : 0,
            "byteLength" : 9768,
            "byteOffset" : 116264
        },
        {
            "buffer" : 0,
            "byteLength" : 6240,
            "byteOffset" : 126032
        },
        {
            "buffer" : 0,
            "byteLength" : 6240,
            "byteOffset" : 132272
        },
        {
            "buffer" : 0,
            "byteLength" : 4160,
            "byteOffset" : 138512
        },
        {
            "buffer" : 0,
            "byteLength" : 4608,
            "byteOffset" : 142672
        }
    ],
    "buffers" : [
        {
            "byteLength" : 147280,
            "uri" : "data:application/octet-stream;base64,"
        }
    ]
}
