{
    "asset" : {
        "generator" : "Khronos glTF Blender I/O v1.6.16",
        "version" : "2.0"
    },
    "scene" : 0,
    "scenes" : [
        {
            "name" : "Scene",
            "nodes" : [
                0
            ]
        }
    ],
    "nodes" : [
        {
            "mesh" : 0,
            "name" : "pCube13.001"
        }
    ],
    "materials" : [
        {
            "doubleSided" : true,
            "name" : "standardSurface2",
            "pbrMetallicRoughness" : {
                "baseColorFactor" : [
                    0,
                    0,
                    0,
                    1
                ],
                "metallicFactor" : 0,
                "roughnessFactor" : 0.17938931286334991
            }
        }
    ],
    "meshes" : [
        {
            "name" : "Mesh.061",
            "primitives" : [
                {
                    "attributes" : {
                        "POSITION" : 0,
                        "NORMAL" : 1,
                        "TEXCOORD_0" : 2
                    },
                    "indices" : 3,
                    "material" : 0
                }
            ]
        }
    ],
    "accessors" : [
        {
            "bufferView" : 0,
            "componentType" : 5126,
            "count" : 190,
            "max" : [
                0.45868000388145447,
                1.270826816558838,
                0.22595758736133575
            ],
            "min" : [
                -0.4586804211139679,
                -0.05113190412521362,
                -0.22595758736133575
            ],
            "type" : "VEC3"
        },
        {
            "bufferView" : 1,
            "componentType" : 5126,
            "count" : 190,
            "type" : "VEC3"
        },
        {
            "bufferView" : 2,
            "componentType" : 5126,
            "count" : 190,
            "type" : "VEC2"
        },
        {
            "bufferView" : 3,
            "componentType" : 5123,
            "count" : 612,
            "type" : "SCALAR"
        }
    ],
    "bufferViews" : [
        {
            "buffer" : 0,
            "byteLength" : 2280,
            "byteOffset" : 0
        },
        {
            "buffer" : 0,
            "byteLength" : 2280,
            "byteOffset" : 2280
        },
        {
            "buffer" : 0,
            "byteLength" : 1520,
            "byteOffset" : 4560
        },
        {
            "buffer" : 0,
            "byteLength" : 1224,
            "byteOffset" : 6080
        }
    ],
    "buffers" : [
        {
            "byteLength" : 7304,
            "uri" : "data:application/octet-stream;base64,"
        }
    ]
}
