{
    "asset" : {
        "generator" : "Khronos glTF Blender I/O v3.2.43",
        "version" : "2.0"
    },
    "scene" : 0,
    "scenes" : [
        {
            "name" : "Scene",
            "nodes" : [
                4
            ]
        }
    ],
    "nodes" : [
        {
            "mesh" : 0,
            "name" : "dome_tunnel",
            "translation" : [
                0,
                1.602569580078125,
                0
            ]
        },
        {
            "mesh" : 1,
            "name" : "floor"
        },
        {
            "mesh" : 2,
            "name" : "panels"
        },
        {
            "mesh" : 3,
            "name" : "structure"
        },
        {
            "children" : [
                0,
                1,
                2,
                3
            ],
            "name" : "geodesic_greehouse",
            "rotation" : [
                0.7071068286895752,
                0,
                0,
                0.7071067094802856
            ],
            "scale" : [
                1.431717872619629,
                1.431717872619629,
                1.431717872619629
            ]
        }
    ],
    "materials" : [
        {
            "doubleSided" : true,
            "name" : "mat_metal",
            "pbrMetallicRoughness" : {
                "baseColorFactor" : [
                    0.5,
                    0.5,
                    0.5,
                    1
                ],
                "roughnessFactor" : 0.5527864098548889
            }
        },
        {
            "doubleSided" : true,
            "name" : "glass",
            "pbrMetallicRoughness" : {}
        }
    ],
    "meshes" : [
        {
            "name" : "Mesh.007",
            "primitives" : [
                {
                    "attributes" : {
                        "POSITION" : 0,
                        "NORMAL" : 1,
                        "TEXCOORD_0" : 2
                    },
                    "indices" : 3,
                    "material" : 0
                }
            ]
        },
        {
            "name" : "Mesh.004",
            "primitives" : [
                {
                    "attributes" : {
                        "POSITION" : 4,
                        "NORMAL" : 5,
                        "TEXCOORD_0" : 6
                    },
                    "indices" : 7,
                    "material" : 0
                }
            ]
        },
        {
            "name" : "Mesh.006",
            "primitives" : [
                {
                    "attributes" : {
                        "POSITION" : 8,
                        "NORMAL" : 9,
                        "TEXCOORD_0" : 10
                    },
                    "indices" : 11,
                    "material" : 1
                }
            ]
        },
        {
            "name" : "Mesh.005",
            "primitives" : [
                {
                    "attributes" : {
                        "POSITION" : 12,
                        "NORMAL" : 13,
                        "TEXCOORD_0" : 14
                    },
                    "indices" : 15,
                    "material" : 0
                }
            ]
        }
    ],
    "accessors" : [
        {
            "bufferView" : 0,
            "componentType" : 5126,
            "count" : 1875,
            "max" : [
                6.156218528747559,
                18.109756469726562,
                0.0019533634185791016
            ],
            "min" : [
                -6.155440807342529,
                10.261717796325684,
                -10.820252418518066
            ],
            "type" : "VEC3"
        },
        {
            "bufferView" : 1,
            "componentType" : 5126,
            "count" : 1875,
            "type" : "VEC3"
        },
        {
            "bufferView" : 2,
            "componentType" : 5126,
            "count" : 1875,
            "type" : "VEC2"
        },
        {
            "bufferView" : 3,
            "componentType" : 5123,
            "count" : 5304,
            "type" : "SCALAR"
        },
        {
            "bufferView" : 4,
            "componentType" : 5126,
            "count" : 1512,
            "max" : [
                14.680412292480469,
                14.535438537597656,
                2.384185791015625e-07
            ],
            "min" : [
                -14.67435073852539,
                -14.538092613220215,
                -0.11838912963867188
            ],
            "type" : "VEC3"
        },
        {
            "bufferView" : 5,
            "componentType" : 5126,
            "count" : 1512,
            "type" : "VEC3"
        },
        {
            "bufferView" : 6,
            "componentType" : 5126,
            "count" : 1512,
            "type" : "VEC2"
        },
        {
            "bufferView" : 7,
            "componentType" : 5123,
            "count" : 6360,
            "type" : "SCALAR"
        },
        {
            "bufferView" : 8,
            "componentType" : 5126,
            "count" : 1287,
            "max" : [
                14.642327308654785,
                14.387855529785156,
                -0.27499669790267944
            ],
            "min" : [
                -14.642461776733398,
                -14.516141891479492,
                -18.35437774658203
            ],
            "type" : "VEC3"
        },
        {
            "bufferView" : 9,
            "componentType" : 5126,
            "count" : 1287,
            "type" : "VEC3"
        },
        {
            "bufferView" : 10,
            "componentType" : 5126,
            "count" : 1287,
            "type" : "VEC2"
        },
        {
            "bufferView" : 11,
            "componentType" : 5123,
            "count" : 3564,
            "type" : "SCALAR"
        },
        {
            "bufferView" : 12,
            "componentType" : 5126,
            "count" : 34311,
            "max" : [
                14.740646362304688,
                14.499214172363281,
                0
            ],
            "min" : [
                -14.740798950195312,
                -14.627107620239258,
                -18.46573257446289
            ],
            "type" : "VEC3"
        },
        {
            "bufferView" : 13,
            "componentType" : 5126,
            "count" : 34311,
            "type" : "VEC3"
        },
        {
            "bufferView" : 14,
            "componentType" : 5126,
            "count" : 34311,
            "type" : "VEC2"
        },
        {
            "bufferView" : 15,
            "componentType" : 5123,
            "count" : 74508,
            "type" : "SCALAR"
        }
    ],
    "bufferViews" : [
        {
            "buffer" : 0,
            "byteLength" : 22500,
            "byteOffset" : 0
        },
        {
            "buffer" : 0,
            "byteLength" : 22500,
            "byteOffset" : 22500
        },
        {
            "buffer" : 0,
            "byteLength" : 15000,
            "byteOffset" : 45000
        },
        {
            "buffer" : 0,
            "byteLength" : 10608,
            "byteOffset" : 60000
        },
        {
            "buffer" : 0,
            "byteLength" : 18144,
            "byteOffset" : 70608
        },
        {
            "buffer" : 0,
            "byteLength" : 18144,
            "byteOffset" : 88752
        },
        {
            "buffer" : 0,
            "byteLength" : 12096,
            "byteOffset" : 106896
        },
        {
            "buffer" : 0,
            "byteLength" : 12720,
            "byteOffset" : 118992
        },
        {
            "buffer" : 0,
            "byteLength" : 15444,
            "byteOffset" : 131712
        },
        {
            "buffer" : 0,
            "byteLength" : 15444,
            "byteOffset" : 147156
        },
        {
            "buffer" : 0,
            "byteLength" : 10296,
            "byteOffset" : 162600
        },
        {
            "buffer" : 0,
            "byteLength" : 7128,
            "byteOffset" : 172896
        },
        {
            "buffer" : 0,
            "byteLength" : 411732,
            "byteOffset" : 180024
        },
        {
            "buffer" : 0,
            "byteLength" : 411732,
            "byteOffset" : 591756
        },
        {
            "buffer" : 0,
            "byteLength" : 274488,
            "byteOffset" : 1003488
        },
        {
            "buffer" : 0,
            "byteLength" : 149016,
            "byteOffset" : 1277976
        }
    ],
    "buffers" : [
        {
            "byteLength" : 1426992,
            "uri" : "data:application/octet-stream;base64,"
        }
    ]
}
