{
    "asset" : {
        "generator" : "Khronos glTF Blender I/O v1.6.16",
        "version" : "2.0"
    },
    "extensionsUsed" : [
        "KHR_materials_clearcoat"
    ],
    "scene" : 0,
    "scenes" : [
        {
            "name" : "Scene",
            "nodes" : [
                6
            ]
        }
    ],
    "nodes" : [
        {
            "mesh" : 0,
            "name" : "pCube1",
            "translation" : [
                0,
                0,
                7.57113790512085
            ]
        },
        {
            "mesh" : 1,
            "name" : "pCube3",
            "rotation" : [
                0,
                0,
                -0.7071067690849304,
                0.7071068286895752
            ],
            "scale" : [
                5.768548011779785,
                0.4121561348438263,
                8.014846801757812
            ],
            "translation" : [
                0,
                0,
                7.57113790512085
            ]
        },
        {
            "mesh" : 2,
            "name" : "pCylinder4",
            "translation" : [
                0,
                0,
                7.57113790512085
            ]
        },
        {
            "mesh" : 3,
            "name" : "pCylinder7",
            "translation" : [
                0,
                0,
                7.57113790512085
            ]
        },
        {
            "mesh" : 4,
            "name" : "pSphere1",
            "scale" : [
                1.6034985780715942,
                1.6034985780715942,
                3.085844039916992
            ],
            "translation" : [
                0,
                0,
                7.57113790512085
            ]
        },
        {
            "children" : [
                0,
                1,
                2,
                3,
                4
            ],
            "name" : "spaceShuttle",
            "rotation" : [
                -0.7071068286895752,
                0,
                0,
                0.7071067094802856
            ]
        },
        {
            "children" : [
                5
            ],
            "name" : "rocketShip",
            "rotation" : [
                0.7071068286895752,
                0,
                0,
                0.7071067094802856
            ],
            "scale" : [
                2.4055285453796387,
                2.4055285453796387,
                2.4055285453796387
            ]
        }
    ],
    "materials" : [
        {
            "doubleSided" : true,
            "extensions" : {
                "KHR_materials_clearcoat" : {
                    "clearcoatFactor" : 0.20000000298023224,
                    "clearcoatRoughnessFactor" : 0.029999999329447746
                }
            },
            "name" : "aiStandardSurface1",
            "pbrMetallicRoughness" : {
                "metallicFactor" : 0,
                "roughnessFactor" : 0.22835901379585266
            }
        },
        {
            "doubleSided" : true,
            "name" : "standardSurface2",
            "pbrMetallicRoughness" : {
                "baseColorFactor" : [
                    0,
                    0,
                    0,
                    1
                ],
                "metallicFactor" : 0,
                "roughnessFactor" : 0.17938931286334991
            }
        }
    ],
    "meshes" : [
        {
            "name" : "Mesh.046",
            "primitives" : [
                {
                    "attributes" : {
                        "POSITION" : 0,
                        "NORMAL" : 1,
                        "TEXCOORD_0" : 2
                    },
                    "indices" : 3,
                    "material" : 0
                }
            ]
        },
        {
            "name" : "Mesh.048",
            "primitives" : [
                {
                    "attributes" : {
                        "POSITION" : 4,
                        "NORMAL" : 5,
                        "TEXCOORD_0" : 6
                    },
                    "indices" : 7,
                    "material" : 0
                }
            ]
        },
        {
            "name" : "Mesh.049",
            "primitives" : [
                {
                    "attributes" : {
                        "POSITION" : 8,
                        "NORMAL" : 9,
                        "TEXCOORD_0" : 10
                    },
                    "indices" : 11,
                    "material" : 0
                }
            ]
        },
        {
            "name" : "Mesh.045",
            "primitives" : [
                {
                    "attributes" : {
                        "POSITION" : 12,
                        "NORMAL" : 13,
                        "TEXCOORD_0" : 14
                    },
                    "indices" : 15,
                    "material" : 0
                },
                {
                    "attributes" : {
                        "POSITION" : 16,
                        "NORMAL" : 17,
                        "TEXCOORD_0" : 18
                    },
                    "indices" : 19,
                    "material" : 1
                }
            ]
        },
        {
            "name" : "Mesh.047",
            "primitives" : [
                {
                    "attributes" : {
                        "POSITION" : 20,
                        "NORMAL" : 21,
                        "TEXCOORD_0" : 22
                    },
                    "indices" : 23,
                    "material" : 0
                }
            ]
        }
    ],
    "accessors" : [
        {
            "bufferView" : 0,
            "componentType" : 5126,
            "count" : 148,
            "max" : [
                9.305532455444336,
                2.1864914894104004,
                5.164088249206543
            ],
            "min" : [
                -9.305532455444336,
                1.4577113389968872,
                -10.334724426269531
            ],
            "type" : "VEC3"
        },
        {
            "bufferView" : 1,
            "componentType" : 5126,
            "count" : 148,
            "type" : "VEC3"
        },
        {
            "bufferView" : 2,
            "componentType" : 5126,
            "count" : 148,
            "type" : "VEC2"
        },
        {
            "bufferView" : 3,
            "componentType" : 5123,
            "count" : 552,
            "type" : "SCALAR"
        },
        {
            "bufferView" : 4,
            "componentType" : 5126,
            "count" : 88,
            "max" : [
                -0.6799860000610352,
                0.49999967217445374,
                0.8237082958221436
            ],
            "min" : [
                -1.5909364223480225,
                -0.5000002980232239,
                -0.03964775800704956
            ],
            "type" : "VEC3"
        },
        {
            "bufferView" : 5,
            "componentType" : 5126,
            "count" : 88,
            "type" : "VEC3"
        },
        {
            "bufferView" : 6,
            "componentType" : 5126,
            "count" : 88,
            "type" : "VEC2"
        },
        {
            "bufferView" : 7,
            "componentType" : 5123,
            "count" : 270,
            "type" : "SCALAR"
        },
        {
            "bufferView" : 8,
            "componentType" : 5126,
            "count" : 136,
            "max" : [
                2.21840238571167,
                4.325565338134766,
                5.829631805419922
            ],
            "min" : [
                -2.2184033393859863,
                -4.76837158203125e-07,
                -0.1811990737915039
            ],
            "type" : "VEC3"
        },
        {
            "bufferView" : 9,
            "componentType" : 5126,
            "count" : 136,
            "type" : "VEC3"
        },
        {
            "bufferView" : 10,
            "componentType" : 5126,
            "count" : 136,
            "type" : "VEC2"
        },
        {
            "bufferView" : 11,
            "componentType" : 5123,
            "count" : 378,
            "type" : "SCALAR"
        },
        {
            "bufferView" : 12,
            "componentType" : 5126,
            "count" : 243,
            "max" : [
                1.846647024154663,
                3.9631309509277344,
                1.0494718551635742
            ],
            "min" : [
                -1.8466500043869019,
                0.36243367195129395,
                -16.071147918701172
            ],
            "type" : "VEC3"
        },
        {
            "bufferView" : 13,
            "componentType" : 5126,
            "count" : 243,
            "type" : "VEC3"
        },
        {
            "bufferView" : 14,
            "componentType" : 5126,
            "count" : 243,
            "type" : "VEC2"
        },
        {
            "bufferView" : 15,
            "componentType" : 5123,
            "count" : 876,
            "type" : "SCALAR"
        },
        {
            "bufferView" : 16,
            "componentType" : 5126,
            "count" : 171,
            "max" : [
                1.104282259941101,
                4.160007476806641,
                -12.202316284179688
            ],
            "min" : [
                -1.1042835712432861,
                0.4972259998321533,
                -16.88182830810547
            ],
            "type" : "VEC3"
        },
        {
            "bufferView" : 17,
            "componentType" : 5126,
            "count" : 171,
            "type" : "VEC3"
        },
        {
            "bufferView" : 18,
            "componentType" : 5126,
            "count" : 171,
            "type" : "VEC2"
        },
        {
            "bufferView" : 19,
            "componentType" : 5123,
            "count" : 480,
            "type" : "SCALAR"
        },
        {
            "bufferView" : 20,
            "componentType" : 5126,
            "count" : 472,
            "max" : [
                2.0781431198120117,
                3.4081311225891113,
                1.946056842803955
            ],
            "min" : [
                -2.078144073486328,
                1.361107587814331,
                -0.12850642204284668
            ],
            "type" : "VEC3"
        },
        {
            "bufferView" : 21,
            "componentType" : 5126,
            "count" : 472,
            "type" : "VEC3"
        },
        {
            "bufferView" : 22,
            "componentType" : 5126,
            "count" : 472,
            "type" : "VEC2"
        },
        {
            "bufferView" : 23,
            "componentType" : 5123,
            "count" : 1848,
            "type" : "SCALAR"
        }
    ],
    "bufferViews" : [
        {
            "buffer" : 0,
            "byteLength" : 1776,
            "byteOffset" : 0
        },
        {
            "buffer" : 0,
            "byteLength" : 1776,
            "byteOffset" : 1776
        },
        {
            "buffer" : 0,
            "byteLength" : 1184,
            "byteOffset" : 3552
        },
        {
            "buffer" : 0,
            "byteLength" : 1104,
            "byteOffset" : 4736
        },
        {
            "buffer" : 0,
            "byteLength" : 1056,
            "byteOffset" : 5840
        },
        {
            "buffer" : 0,
            "byteLength" : 1056,
            "byteOffset" : 6896
        },
        {
            "buffer" : 0,
            "byteLength" : 704,
            "byteOffset" : 7952
        },
        {
            "buffer" : 0,
            "byteLength" : 540,
            "byteOffset" : 8656
        },
        {
            "buffer" : 0,
            "byteLength" : 1632,
            "byteOffset" : 9196
        },
        {
            "buffer" : 0,
            "byteLength" : 1632,
            "byteOffset" : 10828
        },
        {
            "buffer" : 0,
            "byteLength" : 1088,
            "byteOffset" : 12460
        },
        {
            "buffer" : 0,
            "byteLength" : 756,
            "byteOffset" : 13548
        },
        {
            "buffer" : 0,
            "byteLength" : 2916,
            "byteOffset" : 14304
        },
        {
            "buffer" : 0,
            "byteLength" : 2916,
            "byteOffset" : 17220
        },
        {
            "buffer" : 0,
            "byteLength" : 1944,
            "byteOffset" : 20136
        },
        {
            "buffer" : 0,
            "byteLength" : 1752,
            "byteOffset" : 22080
        },
        {
            "buffer" : 0,
            "byteLength" : 2052,
            "byteOffset" : 23832
        },
        {
            "buffer" : 0,
            "byteLength" : 2052,
            "byteOffset" : 25884
        },
        {
            "buffer" : 0,
            "byteLength" : 1368,
            "byteOffset" : 27936
        },
        {
            "buffer" : 0,
            "byteLength" : 960,
            "byteOffset" : 29304
        },
        {
            "buffer" : 0,
            "byteLength" : 5664,
            "byteOffset" : 30264
        },
        {
            "buffer" : 0,
            "byteLength" : 5664,
            "byteOffset" : 35928
        },
        {
            "buffer" : 0,
            "byteLength" : 3776,
            "byteOffset" : 41592
        },
        {
            "buffer" : 0,
            "byteLength" : 3696,
            "byteOffset" : 45368
        }
    ],
    "buffers" : [
        {
            "byteLength" : 49064,
            "uri" : "data:application/octet-stream;base64,"
        }
    ]
}
