{
    "asset" : {
        "generator" : "Khronos glTF Blender I/O v1.6.16",
        "version" : "2.0"
    },
    "extensionsUsed" : [
        "KHR_materials_transmission"
    ],
    "scene" : 0,
    "scenes" : [
        {
            "name" : "Scene",
            "nodes" : [
                4
            ]
        }
    ],
    "nodes" : [
        {
            "mesh" : 0,
            "name" : "dome_tunnel",
            "translation" : [
                0,
                1.602569580078125,
                0
            ]
        },
        {
            "mesh" : 1,
            "name" : "floor"
        },
        {
            "mesh" : 2,
            "name" : "panels"
        },
        {
            "mesh" : 3,
            "name" : "structure"
        },
        {
            "children" : [
                0,
                1,
                2,
                3
            ],
            "name" : "geodesic_greehouse",
            "rotation" : [
                0.7071068286895752,
                0,
                0,
                0.7071067094802856
            ],
            "scale" : [
                1.431717872619629,
                1.431717872619629,
                1.431717872619629
            ]
        }
    ],
    "materials" : [
        {
            "doubleSided" : true,
            "name" : "mat_metal",
            "pbrMetallicRoughness" : {
                "baseColorFactor" : [
                    0.5,
                    0.5,
                    0.5,
                    1
                ],
                "roughnessFactor" : 0.5527864098548889
            }
        },
        {
            "doubleSided" : true,
            "extensions" : {
                "KHR_materials_transmission" : {
                    "transmissionFactor" : 1
                }
            },
            "name" : "aiStandardSurface_glass.001",
            "pbrMetallicRoughness" : {
                "metallicFactor" : 0,
                "roughnessFactor" : 0.004999999888241291
            }
        }
    ],
    "meshes" : [
        {
            "name" : "Mesh.007",
            "primitives" : [
                {
                    "attributes" : {
                        "POSITION" : 0,
                        "NORMAL" : 1,
                        "TEXCOORD_0" : 2
                    },
                    "indices" : 3,
                    "material" : 0
                }
            ]
        },
        {
            "name" : "Mesh.004",
            "primitives" : [
                {
                    "attributes" : {
                        "POSITION" : 4,
                        "NORMAL" : 5,
                        "TEXCOORD_0" : 6
                    },
                    "indices" : 7,
                    "material" : 0
                }
            ]
        },
        {
            "name" : "Mesh.006",
            "primitives" : [
                {
                    "attributes" : {
                        "POSITION" : 8,
                        "NORMAL" : 9,
                        "TEXCOORD_0" : 10
                    },
                    "indices" : 11,
                    "material" : 1
                }
            ]
        },
        {
            "name" : "Mesh.005",
            "primitives" : [
                {
                    "attributes" : {
                        "POSITION" : 12,
                        "NORMAL" : 13,
                        "TEXCOORD_0" : 14
                    },
                    "indices" : 15,
                    "material" : 0
                }
            ]
        }
    ],
    "accessors" : [
        {
            "bufferView" : 0,
            "componentType" : 5126,
            "count" : 1900,
            "max" : [
                6.156218528747559,
                18.109756469726562,
                0.0019533634185791016
            ],
            "min" : [
                -6.155440807342529,
                10.261717796325684,
                -10.820252418518066
            ],
            "type" : "VEC3"
        },
        {
            "bufferView" : 1,
            "componentType" : 5126,
            "count" : 1900,
            "type" : "VEC3"
        },
        {
            "bufferView" : 2,
            "componentType" : 5126,
            "count" : 1900,
            "type" : "VEC2"
        },
        {
            "bufferView" : 3,
            "componentType" : 5123,
            "count" : 5304,
            "type" : "SCALAR"
        },
        {
            "bufferView" : 4,
            "componentType" : 5126,
            "count" : 4160,
            "max" : [
                14.680412292480469,
                14.535438537597656,
                2.384185791015625e-07
            ],
            "min" : [
                -14.67435073852539,
                -14.538092613220215,
                -0.11838912963867188
            ],
            "type" : "VEC3"
        },
        {
            "bufferView" : 5,
            "componentType" : 5126,
            "count" : 4160,
            "type" : "VEC3"
        },
        {
            "bufferView" : 6,
            "componentType" : 5126,
            "count" : 4160,
            "type" : "VEC2"
        },
        {
            "bufferView" : 7,
            "componentType" : 5123,
            "count" : 6360,
            "type" : "SCALAR"
        },
        {
            "bufferView" : 8,
            "componentType" : 5126,
            "count" : 3375,
            "max" : [
                14.642327308654785,
                14.387855529785156,
                -0.27499669790267944
            ],
            "min" : [
                -14.642461776733398,
                -14.516141891479492,
                -18.35437774658203
            ],
            "type" : "VEC3"
        },
        {
            "bufferView" : 9,
            "componentType" : 5126,
            "count" : 3375,
            "type" : "VEC3"
        },
        {
            "bufferView" : 10,
            "componentType" : 5126,
            "count" : 3375,
            "type" : "VEC2"
        },
        {
            "bufferView" : 11,
            "componentType" : 5123,
            "count" : 3564,
            "type" : "SCALAR"
        },
        {
            "bufferView" : 12,
            "componentType" : 5126,
            "count" : 35465,
            "max" : [
                14.740646362304688,
                14.499214172363281,
                0
            ],
            "min" : [
                -14.740798950195312,
                -14.627107620239258,
                -18.46573257446289
            ],
            "type" : "VEC3"
        },
        {
            "bufferView" : 13,
            "componentType" : 5126,
            "count" : 35465,
            "type" : "VEC3"
        },
        {
            "bufferView" : 14,
            "componentType" : 5126,
            "count" : 35465,
            "type" : "VEC2"
        },
        {
            "bufferView" : 15,
            "componentType" : 5123,
            "count" : 74508,
            "type" : "SCALAR"
        }
    ],
    "bufferViews" : [
        {
            "buffer" : 0,
            "byteLength" : 22800,
            "byteOffset" : 0
        },
        {
            "buffer" : 0,
            "byteLength" : 22800,
            "byteOffset" : 22800
        },
        {
            "buffer" : 0,
            "byteLength" : 15200,
            "byteOffset" : 45600
        },
        {
            "buffer" : 0,
            "byteLength" : 10608,
            "byteOffset" : 60800
        },
        {
            "buffer" : 0,
            "byteLength" : 49920,
            "byteOffset" : 71408
        },
        {
            "buffer" : 0,
            "byteLength" : 49920,
            "byteOffset" : 121328
        },
        {
            "buffer" : 0,
            "byteLength" : 33280,
            "byteOffset" : 171248
        },
        {
            "buffer" : 0,
            "byteLength" : 12720,
            "byteOffset" : 204528
        },
        {
            "buffer" : 0,
            "byteLength" : 40500,
            "byteOffset" : 217248
        },
        {
            "buffer" : 0,
            "byteLength" : 40500,
            "byteOffset" : 257748
        },
        {
            "buffer" : 0,
            "byteLength" : 27000,
            "byteOffset" : 298248
        },
        {
            "buffer" : 0,
            "byteLength" : 7128,
            "byteOffset" : 325248
        },
        {
            "buffer" : 0,
            "byteLength" : 425580,
            "byteOffset" : 332376
        },
        {
            "buffer" : 0,
            "byteLength" : 425580,
            "byteOffset" : 757956
        },
        {
            "buffer" : 0,
            "byteLength" : 283720,
            "byteOffset" : 1183536
        },
        {
            "buffer" : 0,
            "byteLength" : 149016,
            "byteOffset" : 1467256
        }
    ],
    "buffers" : [
        {
            "byteLength" : 1616272,
            "uri" : "data:application/octet-stream;base64,"
        }
    ]
}
