{
    "asset" : {
        "generator" : "Khronos glTF Blender I/O v1.6.16",
        "version" : "2.0"
    },
    "scene" : 0,
    "scenes" : [
        {
            "name" : "Scene",
            "nodes" : [
                0
            ]
        }
    ],
    "nodes" : [
        {
            "mesh" : 0,
            "name" : "soilBag.001",
            "rotation" : [
                0.5858170986175537,
                0.39600294828414917,
                -0.39600300788879395,
                0.5858170390129089
            ],
            "translation" : [
                0,
                0,
                -3.814697265625e-06
            ]
        }
    ],
    "materials" : [
        {
            "doubleSided" : true,
            "name" : "Tan",
            "pbrMetallicRoughness" : {
                "baseColorFactor" : [
                    0.10877926647663116,
                    0.08967806398868561,
                    0.027658993378281593,
                    1
                ],
                "metallicFactor" : 0,
                "roughnessFactor" : 0.5527864098548889
            }
        }
    ],
    "meshes" : [
        {
            "name" : "soilBag.001",
            "primitives" : [
                {
                    "attributes" : {
                        "POSITION" : 0,
                        "NORMAL" : 1,
                        "TEXCOORD_0" : 2
                    },
                    "indices" : 3,
                    "material" : 0
                }
            ]
        }
    ],
    "accessors" : [
        {
            "bufferView" : 0,
            "componentType" : 5126,
            "count" : 813,
            "max" : [
                1.9671859741210938,
                2.058417320251465,
                0.19441509246826172
            ],
            "min" : [
                -2.291675567626953,
                -2.2269582748413086,
                -4.580710411071777
            ],
            "type" : "VEC3"
        },
        {
            "bufferView" : 1,
            "componentType" : 5126,
            "count" : 813,
            "type" : "VEC3"
        },
        {
            "bufferView" : 2,
            "componentType" : 5126,
            "count" : 813,
            "type" : "VEC2"
        },
        {
            "bufferView" : 3,
            "componentType" : 5123,
            "count" : 4512,
            "type" : "SCALAR"
        }
    ],
    "bufferViews" : [
        {
            "buffer" : 0,
            "byteLength" : 9756,
            "byteOffset" : 0
        },
        {
            "buffer" : 0,
            "byteLength" : 9756,
            "byteOffset" : 9756
        },
        {
            "buffer" : 0,
            "byteLength" : 6504,
            "byteOffset" : 19512
        },
        {
            "buffer" : 0,
            "byteLength" : 9024,
            "byteOffset" : 26016
        }
    ],
    "buffers" : [
        {
            "byteLength" : 35040,
            "uri" : "data:application/octet-stream;base64,"
        }
    ]
}
