{
    "asset" : {
        "generator" : "Khronos glTF Blender I/O v3.2.43",
        "version" : "2.0"
    },
    "scene" : 0,
    "scenes" : [
        {
            "name" : "Scene",
            "nodes" : [
                0
            ]
        }
    ],
    "nodes" : [
        {
            "mesh" : 0,
            "name" : "watercan",
            "rotation" : [
                0.7071068286895752,
                0,
                0,
                0.7071067094802856
            ]
        }
    ],
    "materials" : [
        {
            "doubleSided" : true,
            "name" : "Material",
            "pbrMetallicRoughness" : {
                "baseColorFactor" : [
                    0.07233109325170517,
                    0.3082648515701294,
                    0.16807112097740173,
                    1
                ],
                "metallicFactor" : 0,
                "roughnessFactor" : 0.4000000059604645
            }
        }
    ],
    "meshes" : [
        {
            "name" : "watercan",
            "primitives" : [
                {
                    "attributes" : {
                        "POSITION" : 0,
                        "NORMAL" : 1,
                        "TEXCOORD_0" : 2
                    },
                    "indices" : 3,
                    "material" : 0
                }
            ]
        }
    ],
    "accessors" : [
        {
            "bufferView" : 0,
            "componentType" : 5126,
            "count" : 1115,
            "max" : [
                0.8463069796562195,
                1.7282119989395142,
                0
            ],
            "min" : [
                -0.8463079929351807,
                -1.507789969444275,
                -1.8235019445419312
            ],
            "type" : "VEC3"
        },
        {
            "bufferView" : 1,
            "componentType" : 5126,
            "count" : 1115,
            "type" : "VEC3"
        },
        {
            "bufferView" : 2,
            "componentType" : 5126,
            "count" : 1115,
            "type" : "VEC2"
        },
        {
            "bufferView" : 3,
            "componentType" : 5123,
            "count" : 5904,
            "type" : "SCALAR"
        }
    ],
    "bufferViews" : [
        {
            "buffer" : 0,
            "byteLength" : 13380,
            "byteOffset" : 0
        },
        {
            "buffer" : 0,
            "byteLength" : 13380,
            "byteOffset" : 13380
        },
        {
            "buffer" : 0,
            "byteLength" : 8920,
            "byteOffset" : 26760
        },
        {
            "buffer" : 0,
            "byteLength" : 11808,
            "byteOffset" : 35680
        }
    ],
    "buffers" : [
        {
            "byteLength" : 47488,
            "uri" : "data:application/octet-stream;base64,"
        }
    ]
}
